<?xml version="1.0" encoding="UTF-8" standalone="no"?>
<svg
   xmlns:dc="http://purl.org/dc/elements/1.1/"
   xmlns:cc="http://creativecommons.org/ns#"
   xmlns:rdf="http://www.w3.org/1999/02/22-rdf-syntax-ns#"
   xmlns:svg="http://www.w3.org/2000/svg"
   xmlns="http://www.w3.org/2000/svg"
   viewBox="0 0 3194.6667 3394.6667"
   height="3394.6667"
   width="3194.6667"
   xml:space="preserve"
   id="svg2"
   version="1.1"><metadata
     id="metadata8"><rdf:RDF><cc:Work
         rdf:about=""><dc:format>image/svg+xml</dc:format><dc:type
           rdf:resource="http://purl.org/dc/dcmitype/StillImage" /></cc:Work></rdf:RDF></metadata><defs
     id="defs6" /><g
     transform="matrix(1.3333333,0,0,-1.3333333,0,3394.6667)"
     id="g10"><g
       transform="scale(0.1)"
       id="g12"><g
         transform="scale(1.56196)"
         id="g14"><path
           id="path16"
           style="fill:#ffffff;fill-opacity:1;fill-rule:nonzero;stroke:none"
           d="M 0,16300 H 15338.3 V 3.05355 H 0" /></g><path
         id="path18"
         style="fill:#ffffff;fill-opacity:1;fill-rule:nonzero;stroke:none"
         d="m 11978.8,12868.4 c -2.3,0 -4.6,0 -6.9,0 -0.6,0 -1.3,-0.1 -2,-0.1 -2.3,-0.2 -4.6,-0.5 -6.9,-0.9 -2.3,-0.3 -4.5,-0.6 -6.7,-0.9 -2.3,-0.4 -4.5,-0.9 -6.7,-1.5 -2,-0.4 -4,-0.7 -6,-1.2 -0.3,0 -0.6,0 -0.9,0 -0.7,-0.3 -1.3,-0.6 -2,-0.9 -3,-0.9 -5.9,-1.9 -8.9,-3 -2.1,-0.8 -4.1,-1.7 -6.2,-2.6 -2.1,-0.9 -4.2,-1.7 -6.3,-2.8 -2,-1 -4,-2 -5.9,-3.1 -2,-1.1 -4,-2.2 -5.9,-3.4 -1.9,-1.2 -3.8,-2.4 -5.6,-3.7 -1.9,-1.3 -3.7,-2.6 -5.6,-4 -1.7,-1.4 -3.5,-2.8 -5.2,-4.2 -1.7,-1.5 -3.4,-3 -5.1,-4.6 -1.6,-1.5 -3.2,-3.1 -4.8,-4.7 -1.6,-1.7 -3.1,-3.3 -4.6,-5 -1.5,-1.8 -2.9,-3.5 -4.3,-5.3 -1.4,-1.8 -2.8,-3.6 -4.1,-5.4 -1.3,-1.9 -2.6,-3.7 -3.8,-5.6 -1.2,-1.9 -2.4,-3.9 -3.5,-5.9 -1.2,-1.9 -2.2,-3.9 -3.2,-6 -1.1,-2 -2,-4 -2.9,-6.1 -0.9,-2.1 -1.8,-4.2 -2.7,-6.3 -0.8,-2.1 -1.5,-4.2 -2.2,-6.4 -0.7,-2.1 -1.4,-4.3 -2,-6.5 -0.6,-2.1 -1.1,-4.3 -1.6,-6.5 -0.5,-2.2 -0.9,-4.5 -1.3,-6.7 -0.4,-2.2 -0.7,-4.4 -1,-6.7 -0.4,-2.2 -0.6,-4.5 -0.9,-6.8 0,-2.2 0,-4.5 0,-6.7 0,-0.8 0,-1.7 0,-2.6 0,-2.2 0,-4.5 0,-6.7 0,-0.7 0,-1.5 0.1,-2.2 0.2,-2.2 0.5,-4.5 0.9,-6.7 0.2,-2.3 0.5,-4.5 0.9,-6.8 0.4,-2.2 0.9,-4.4 1.4,-6.7 0.4,-2 0.8,-4 1.3,-6.1 0,-0.2 0,-0.5 0,-0.8 0.3,-0.7 0.6,-1.4 0.9,-2 0.9,-3 1.9,-6 3,-8.9 0.8,-2.2 1.6,-4.3 2.5,-6.3 0.9,-2.1 1.8,-4.2 2.7,-6.2 1.1,-2 2.1,-4 3.2,-6 1.1,-2 2.2,-3.9 3.4,-5.9 1.2,-1.9 2.4,-3.8 3.7,-5.7 1.2,-1.8 2.5,-3.7 3.9,-5.5 1.3,-1.8 2.8,-3.5 4.2,-5.2 1.5,-1.8 3,-3.5 4.6,-5.1 1.5,-1.6 3.1,-3.2 4.7,-4.8 1.7,-1.6 3.3,-3.1 5,-4.6 1.8,-1.5 3.5,-3 5.3,-4.4 1.8,-1.4 3.6,-2.7 5.4,-4.1 1.9,-1.3 3.7,-2.5 5.6,-3.7 1.9,-1.3 3.8,-2.5 5.8,-3.6 2,-1.1 4,-2.2 6,-3.2 2,-1 4.1,-2 6.2,-2.9 2,-0.9 4.1,-1.8 6.2,-2.6 2.1,-0.8 4.3,-1.6 6.4,-2.3 2.2,-0.7 4.4,-1.4 6.6,-1.9 2.2,-0.7 4.3,-1.2 6.6,-1.8 2.2,-0.4 4.3,-0.8 6.6,-1.2 2.2,-0.4 4.4,-0.7 6.7,-1 2.2,-0.4 4.4,-0.7 6.7,-0.9 2.2,-0.1 4.5,-0.1 6.8,0 0.8,-0.1 1.7,-0.1 2.6,-0.1 2.3,-0.1 4.5,-0.1 6.8,0 0.7,0 1.4,0 2.1,0 2.3,0.3 4.6,0.6 6.9,0.9 2.2,0.3 4.4,0.6 6.6,1 2.3,0.4 4.5,0.9 6.7,1.4 2,0.4 4,0.8 6,1.3 0.3,0 0.6,0 0.9,0 0.7,0.3 1.4,0.6 2,0.9 3,0.9 6.1,1.9 9,3 2.1,0.8 4.2,1.6 6.2,2.5 2.1,0.9 4.2,1.8 6.3,2.8 2,1 4,2.1 5.9,3.2 2,1 4,2.2 6,3.3 1.9,1.2 3.8,2.5 5.7,3.8 1.8,1.2 3.7,2.6 5.5,3.9 1.8,1.4 3.5,2.8 5.2,4.3 1.8,1.4 3.4,2.9 5.1,4.4 1.7,1.6 3.2,3.2 4.8,4.8 1.6,1.6 3.1,3.2 4.6,4.9 1.5,1.7 3,3.5 4.4,5.3 1.4,1.7 2.7,3.5 4,5.4 1.4,1.9 2.6,3.7 3.9,5.6 1.2,1.9 2.3,3.9 3.5,5.8 1.1,2 2.1,4 3.1,6.1 1.1,2 2,4 2.9,6 0.9,2.1 1.8,4.2 2.6,6.3 0.8,2.1 1.6,4.3 2.3,6.4 0.7,2.1 1.3,4.3 1.9,6.4 0.7,2.2 1.2,4.5 1.7,6.7 0.5,2.2 0.9,4.4 1.3,6.6 0.4,2.3 0.7,4.5 1,6.8 0.4,2.2 0.7,4.5 0.9,6.8 0.1,2.2 0.1,4.4 0,6.6 0,1 0,1.8 0,2.7 0.1,2.2 0.1,4.5 0,6.8 0,0.7 0,1.4 -0.1,2.1 -0.2,2.2 -0.5,4.5 -0.9,6.9 -0.2,2.2 -0.5,4.4 -0.9,6.6 -0.4,2.3 -0.9,4.5 -1.4,6.7 -0.4,2.1 -0.8,4.1 -1.3,6.1 0,0.3 0,0.6 0,0.9 -0.3,0.7 -0.6,1.3 -0.9,2 -0.9,3 -1.9,6 -3,8.9 -0.7,2.1 -1.6,4.2 -2.5,6.3 -0.9,2.1 -1.8,4.1 -2.7,6.2 -1,2 -2.1,4 -3.2,5.9 -1.1,2 -2.2,4 -3.3,5.9 -1.2,2 -2.5,3.8 -3.7,5.7 -1.3,1.8 -2.7,3.7 -4,5.5 -1.4,1.8 -2.8,3.5 -4.3,5.2 -1.5,1.8 -3,3.5 -4.5,5.2 -1.6,1.6 -3.2,3.2 -4.8,4.8 -1.7,1.6 -3.3,3.1 -5,4.6 -1.7,1.5 -3.5,2.9 -5.2,4.3 -1.8,1.4 -3.7,2.7 -5.5,4 -1.9,1.4 -3.8,2.6 -5.7,3.8 -1.9,1.3 -3.8,2.4 -5.8,3.6 -2,1.1 -4,2.1 -6,3.1 -2,1.1 -4,2.1 -6.1,3 -2.1,0.9 -4.2,1.8 -6.3,2.5 -2.1,0.9 -4.2,1.7 -6.3,2.4 -2.2,0.7 -4.3,1.3 -6.5,1.9 -2.2,0.6 -4.4,1.2 -6.7,1.7 -2.1,0.5 -4.3,0.9 -6.6,1.3 -2.2,0.4 -4.5,0.7 -6.8,1 -2.2,0.3 -4.4,0.7 -6.6,0.9 -2.3,0.1 -4.6,0.1 -6.8,0 -0.9,0 -1.7,0.1 -2.6,0.1 z" /><path
         id="path20"
         style="fill:#ffffff;fill-opacity:1;fill-rule:nonzero;stroke:none"
         d="m 11978.8,12868.4 c -2.3,0 -4.6,0 -6.9,0 -0.6,0 -1.3,-0.1 -2,-0.1 -2.3,-0.2 -4.6,-0.5 -6.9,-0.9 -2.3,-0.3 -4.5,-0.6 -6.7,-0.9 -2.3,-0.4 -4.5,-0.9 -6.7,-1.5 -2,-0.4 -4,-0.7 -6,-1.2 -0.3,0 -0.6,0 -0.9,0 -0.7,-0.3 -1.3,-0.6 -2,-0.9 -3,-0.9 -5.9,-1.9 -8.9,-3 -2.1,-0.8 -4.1,-1.7 -6.2,-2.6 -2.1,-0.9 -4.2,-1.7 -6.3,-2.8 -2,-1 -4,-2 -5.9,-3.1 -2,-1.1 -4,-2.2 -5.9,-3.4 -1.9,-1.2 -3.8,-2.4 -5.6,-3.7 -1.9,-1.3 -3.7,-2.6 -5.6,-4 -1.7,-1.4 -3.5,-2.8 -5.2,-4.2 -1.7,-1.5 -3.4,-3 -5.1,-4.6 -1.6,-1.5 -3.2,-3.1 -4.8,-4.7 -1.6,-1.7 -3.1,-3.3 -4.6,-5 -1.5,-1.8 -2.9,-3.5 -4.3,-5.3 -1.4,-1.8 -2.8,-3.6 -4.1,-5.4 -1.3,-1.9 -2.6,-3.7 -3.8,-5.6 -1.2,-1.9 -2.4,-3.9 -3.5,-5.9 -1.2,-1.9 -2.2,-3.9 -3.2,-6 -1.1,-2 -2,-4 -2.9,-6.1 -0.9,-2.1 -1.8,-4.2 -2.7,-6.3 -0.8,-2.1 -1.5,-4.2 -2.2,-6.4 -0.7,-2.1 -1.4,-4.3 -2,-6.5 -0.6,-2.1 -1.1,-4.3 -1.6,-6.5 -0.5,-2.2 -0.9,-4.5 -1.3,-6.7 -0.4,-2.2 -0.7,-4.4 -1,-6.7 -0.4,-2.2 -0.6,-4.5 -0.9,-6.8 0,-2.2 0,-4.5 0,-6.7 0,-0.8 0,-1.7 0,-2.6 0,-2.2 0,-4.5 0,-6.7 0,-0.7 0,-1.5 0.1,-2.2 0.2,-2.2 0.5,-4.5 0.9,-6.7 0.2,-2.3 0.5,-4.6 0.9,-6.9 0.4,-2.2 0.9,-4.4 1.4,-6.7 0.4,-2 0.8,-4 1.3,-6 0,-0.2 0,-0.5 0,-0.8 0.3,-0.7 0.6,-1.4 0.9,-2 0.9,-3 1.9,-6 3,-8.9 0.8,-2.2 1.6,-4.3 2.5,-6.3 0.9,-2.1 1.8,-4.2 2.7,-6.2 1.1,-2 2.1,-4 3.2,-6 1.1,-2 2.2,-3.9 3.4,-5.9 1.2,-1.9 2.4,-3.8 3.7,-5.7 1.2,-1.8 2.5,-3.7 3.9,-5.5 1.3,-1.8 2.8,-3.5 4.2,-5.2 1.5,-1.8 3,-3.5 4.6,-5.1 1.5,-1.6 3.1,-3.2 4.7,-4.8 1.7,-1.6 3.3,-3.1 5,-4.6 1.8,-1.5 3.5,-3 5.3,-4.4 1.8,-1.4 3.6,-2.7 5.4,-4.1 1.9,-1.3 3.7,-2.5 5.6,-3.7 1.9,-1.3 3.8,-2.5 5.8,-3.6 2,-1.1 4,-2.2 6,-3.2 2,-1 4.1,-2 6.2,-2.9 2,-0.9 4.1,-1.8 6.2,-2.6 2.1,-0.8 4.3,-1.6 6.4,-2.3 2.2,-0.7 4.4,-1.4 6.6,-1.9 2.2,-0.6 4.3,-1.2 6.6,-1.7 2.2,-0.4 4.3,-0.9 6.6,-1.2 2.2,-0.4 4.4,-0.8 6.7,-1 2.2,-0.4 4.4,-0.7 6.7,-0.9 2.2,-0.1 4.5,-0.1 6.8,0 0.8,0 1.7,0 2.6,0 2.3,-0.1 4.5,-0.1 6.8,0 0.7,0 1.4,0 2.1,0 2.3,0.3 4.6,0.6 6.9,0.9 2.2,0.3 4.4,0.6 6.6,0.9 2.3,0.5 4.5,1 6.7,1.5 2,0.4 4,0.8 6,1.3 0.3,0 0.6,0 0.9,0 0.7,0.2 1.4,0.6 2,0.9 3,0.9 6.1,1.8 9,2.9 2.1,0.9 4.2,1.7 6.2,2.6 2.1,0.9 4.2,1.8 6.3,2.8 2,1 4,2.1 5.9,3.2 2,1 4,2.1 6,3.3 1.9,1.2 3.8,2.4 5.7,3.7 1.8,1.3 3.7,2.6 5.5,4 1.8,1.4 3.5,2.8 5.2,4.3 1.8,1.4 3.4,2.9 5.1,4.4 1.7,1.6 3.2,3.2 4.8,4.8 1.6,1.6 3.1,3.2 4.6,4.9 1.5,1.7 3,3.4 4.4,5.2 1.4,1.8 2.7,3.6 4,5.5 1.4,1.8 2.6,3.7 3.9,5.6 1.2,1.9 2.3,3.8 3.5,5.8 1.1,2 2.1,4 3.1,6.1 1.1,2 2,4 2.9,6 0.9,2.1 1.8,4.2 2.6,6.3 0.8,2.1 1.6,4.2 2.3,6.4 0.7,2.1 1.3,4.3 1.9,6.4 0.7,2.2 1.2,4.4 1.7,6.6 0.5,2.3 0.9,4.5 1.3,6.7 0.4,2.3 0.7,4.5 1,6.7 0.4,2.3 0.7,4.6 0.9,6.8 0.1,2.3 0.1,4.5 0,6.7 0,0.9 0,1.8 0,2.7 0.1,2.3 0.1,4.5 0,6.8 0,0.7 0,1.4 -0.1,2.1 -0.2,2.3 -0.5,4.6 -0.9,6.9 -0.2,2.3 -0.5,4.5 -0.9,6.7 -0.4,2.3 -0.9,4.5 -1.4,6.7 -0.4,2 -0.8,4 -1.3,6 0,0.3 0,0.6 0,0.9 -0.3,0.7 -0.6,1.3 -0.9,2 -0.9,3 -1.9,5.9 -3,8.8 -0.7,2.2 -1.6,4.3 -2.5,6.4 -0.9,2.1 -1.8,4.1 -2.7,6.1 -1,2.1 -2.1,4.1 -3.2,6 -1.1,2 -2.2,4 -3.3,5.9 -1.2,1.9 -2.5,3.8 -3.7,5.6 -1.3,1.9 -2.7,3.7 -4,5.6 -1.4,1.7 -2.8,3.5 -4.3,5.2 -1.5,1.7 -3,3.5 -4.5,5.2 -1.6,1.6 -3.2,3.2 -4.8,4.8 -1.7,1.6 -3.3,3.1 -5,4.6 -1.7,1.5 -3.5,2.9 -5.2,4.3 -1.8,1.5 -3.7,2.8 -5.5,4.1 -1.9,1.3 -3.8,2.6 -5.7,3.8 -1.9,1.2 -3.8,2.4 -5.8,3.6 -2,1 -4,2.1 -6,3.1 -2,1.1 -4,2 -6.1,3 -2.1,0.9 -4.2,1.7 -6.3,2.5 -2.1,0.9 -4.2,1.7 -6.3,2.4 -2.2,0.7 -4.3,1.3 -6.5,1.9 -2.2,0.6 -4.4,1.2 -6.7,1.7 -2.1,0.5 -4.3,0.9 -6.6,1.3 -2.2,0.4 -4.5,0.7 -6.8,1 -2.2,0.3 -4.4,0.6 -6.6,0.9 -2.3,0 -4.6,0 -6.8,0 -0.9,0 -1.7,0 -2.6,0 z" /><path
         id="path22"
         style="fill:#ffffff;fill-opacity:1;fill-rule:nonzero;stroke:none"
         d="m 11978.8,12868.4 c -2.3,0 -4.6,0 -6.9,0 -0.6,0 -1.3,-0.1 -2,-0.1 -2.3,-0.2 -4.6,-0.5 -6.9,-0.9 -2.3,-0.3 -4.5,-0.6 -6.7,-0.9 -2.3,-0.4 -4.5,-0.9 -6.7,-1.5 -2,-0.4 -4,-0.7 -6,-1.2 -0.3,0 -0.6,0 -0.9,0 -0.7,-0.3 -1.3,-0.6 -2,-0.9 -3,-0.9 -5.9,-1.9 -8.9,-3 -2.1,-0.8 -4.1,-1.7 -6.2,-2.6 -2.1,-0.9 -4.2,-1.7 -6.3,-2.8 -2,-1 -4,-2 -5.9,-3.1 -2,-1.1 -4,-2.2 -5.9,-3.4 -1.9,-1.2 -3.8,-2.4 -5.6,-3.7 -1.9,-1.3 -3.7,-2.6 -5.6,-4 -1.7,-1.4 -3.5,-2.8 -5.2,-4.2 -1.7,-1.5 -3.4,-3 -5.1,-4.6 -1.6,-1.5 -3.2,-3.1 -4.8,-4.7 -1.6,-1.7 -3.1,-3.3 -4.6,-5 -1.5,-1.8 -2.9,-3.5 -4.3,-5.3 -1.4,-1.8 -2.8,-3.6 -4.1,-5.4 -1.3,-1.9 -2.6,-3.7 -3.8,-5.6 -1.2,-1.9 -2.4,-3.9 -3.5,-5.9 -1.2,-1.9 -2.2,-3.9 -3.2,-6 -1.1,-2 -2,-4 -2.9,-6.1 -0.9,-2.1 -1.8,-4.2 -2.7,-6.3 -0.8,-2.1 -1.5,-4.2 -2.2,-6.4 -0.7,-2.1 -1.4,-4.3 -2,-6.5 -0.6,-2.1 -1.1,-4.3 -1.6,-6.5 -0.5,-2.2 -0.9,-4.5 -1.3,-6.7 -0.4,-2.2 -0.7,-4.4 -1,-6.7 -0.4,-2.2 -0.6,-4.5 -0.9,-6.8 0,-2.2 0,-4.5 0,-6.7 0,-0.8 0,-1.7 0,-2.6 0,-2.2 0,-4.5 0,-6.7 0,-0.7 0,-1.5 0.1,-2.2 0.2,-2.2 0.5,-4.5 0.9,-6.7 0.2,-2.3 0.5,-4.6 0.9,-6.9 0.4,-2.2 0.9,-4.4 1.4,-6.7 0.4,-2 0.8,-4 1.3,-6 0,-0.2 0,-0.5 0,-0.8 0.3,-0.7 0.6,-1.4 0.9,-2 0.9,-3 1.9,-6 3,-8.9 0.8,-2.2 1.6,-4.3 2.5,-6.3 0.9,-2.1 1.8,-4.2 2.7,-6.2 1.1,-2 2.1,-4 3.2,-6 1.1,-2 2.2,-3.9 3.4,-5.9 1.2,-1.9 2.4,-3.8 3.7,-5.7 1.2,-1.8 2.5,-3.7 3.9,-5.5 1.3,-1.8 2.8,-3.5 4.2,-5.2 1.5,-1.8 3,-3.5 4.6,-5.1 1.5,-1.6 3.1,-3.2 4.7,-4.8 1.7,-1.6 3.3,-3.1 5,-4.6 1.8,-1.5 3.5,-3 5.3,-4.4 1.8,-1.4 3.6,-2.7 5.4,-4.1 1.9,-1.3 3.7,-2.5 5.6,-3.7 1.9,-1.3 3.8,-2.5 5.8,-3.6 2,-1.1 4,-2.2 6,-3.2 2,-1 4.1,-2 6.2,-2.9 2,-0.9 4.1,-1.8 6.2,-2.6 2.1,-0.8 4.3,-1.6 6.4,-2.3 2.2,-0.7 4.4,-1.4 6.6,-1.9 2.2,-0.6 4.3,-1.2 6.6,-1.7 2.2,-0.4 4.3,-0.9 6.6,-1.2 2.2,-0.4 4.4,-0.8 6.7,-1 2.2,-0.4 4.4,-0.7 6.7,-0.9 2.2,-0.1 4.5,-0.1 6.8,0 0.8,0 1.7,0 2.6,0 2.3,-0.1 4.5,-0.1 6.8,0 0.7,0 1.4,0 2.1,0 2.3,0.3 4.6,0.6 6.9,0.9 2.2,0.3 4.4,0.6 6.6,0.9 2.3,0.5 4.5,1 6.7,1.5 2,0.4 4,0.8 6,1.3 0.3,0 0.6,0 0.9,0 0.7,0.2 1.4,0.6 2,0.9 3,0.9 6.1,1.8 9,2.9 2.1,0.9 4.2,1.7 6.2,2.6 2.1,0.9 4.2,1.8 6.3,2.8 2,1 4,2.1 5.9,3.2 2,1 4,2.1 6,3.3 1.9,1.2 3.8,2.4 5.7,3.7 1.8,1.3 3.7,2.6 5.5,4 1.8,1.4 3.5,2.8 5.2,4.3 1.8,1.4 3.4,2.9 5.1,4.4 1.7,1.6 3.2,3.2 4.8,4.8 1.6,1.6 3.1,3.2 4.6,4.9 1.5,1.7 3,3.4 4.4,5.2 1.4,1.8 2.7,3.6 4,5.5 1.4,1.8 2.6,3.7 3.9,5.6 1.2,1.9 2.3,3.8 3.5,5.8 1.1,2 2.1,4 3.1,6.1 1.1,2 2,4 2.9,6 0.9,2.1 1.8,4.2 2.6,6.3 0.8,2.1 1.6,4.2 2.3,6.4 0.7,2.1 1.3,4.3 1.9,6.4 0.7,2.2 1.2,4.4 1.7,6.6 0.5,2.3 0.9,4.5 1.3,6.7 0.4,2.3 0.7,4.5 1,6.7 0.4,2.3 0.7,4.6 0.9,6.8 0.1,2.3 0.1,4.5 0,6.7 0,0.9 0,1.8 0,2.7 0.1,2.3 0.1,4.5 0,6.8 0,0.7 0,1.4 -0.1,2.1 -0.2,2.3 -0.5,4.6 -0.9,6.9 -0.2,2.3 -0.5,4.5 -0.9,6.7 -0.4,2.3 -0.9,4.5 -1.4,6.7 -0.4,2 -0.8,4 -1.3,6 0,0.3 0,0.6 0,0.9 -0.3,0.7 -0.6,1.3 -0.9,2 -0.9,3 -1.9,5.9 -3,8.8 -0.7,2.2 -1.6,4.3 -2.5,6.4 -0.9,2.1 -1.8,4.1 -2.7,6.1 -1,2.1 -2.1,4.1 -3.2,6 -1.1,2 -2.2,4 -3.3,5.9 -1.2,1.9 -2.5,3.8 -3.7,5.6 -1.3,1.9 -2.7,3.7 -4,5.6 -1.4,1.7 -2.8,3.5 -4.3,5.2 -1.5,1.7 -3,3.5 -4.5,5.2 -1.6,1.6 -3.2,3.2 -4.8,4.8 -1.7,1.6 -3.3,3.1 -5,4.6 -1.7,1.5 -3.5,2.9 -5.2,4.3 -1.8,1.5 -3.7,2.8 -5.5,4.1 -1.9,1.3 -3.8,2.6 -5.7,3.8 -1.9,1.2 -3.8,2.4 -5.8,3.6 -2,1 -4,2.1 -6,3.1 -2,1.1 -4,2 -6.1,3 -2.1,0.9 -4.2,1.7 -6.3,2.5 -2.1,0.9 -4.2,1.7 -6.3,2.4 -2.2,0.7 -4.3,1.3 -6.5,1.9 -2.2,0.6 -4.4,1.2 -6.7,1.7 -2.1,0.5 -4.3,0.9 -6.6,1.3 -2.2,0.4 -4.5,0.7 -6.8,1 -2.2,0.3 -4.4,0.6 -6.6,0.9 -2.3,0 -4.6,0 -6.8,0 -0.9,0 -1.7,0 -2.6,0 z" /><path
         id="path24"
         style="fill:#ffffff;fill-opacity:1;fill-rule:nonzero;stroke:none"
         d="m 11978.8,12868.4 c -2.3,0 -4.6,0 -6.9,0 -0.6,0 -1.3,-0.1 -2,-0.1 -2.3,-0.2 -4.6,-0.5 -6.9,-0.9 -2.3,-0.3 -4.5,-0.6 -6.7,-0.9 -2.3,-0.4 -4.5,-0.9 -6.7,-1.5 -2,-0.4 -4,-0.7 -6,-1.2 -0.3,0 -0.6,0 -0.9,0 -0.7,-0.3 -1.3,-0.6 -2,-0.9 -3,-0.9 -5.9,-1.9 -8.9,-3 -2.1,-0.8 -4.1,-1.7 -6.2,-2.6 -2.1,-0.9 -4.2,-1.7 -6.3,-2.8 -2,-1 -4,-2 -5.9,-3.1 -2,-1.1 -4,-2.2 -5.9,-3.4 -1.9,-1.2 -3.8,-2.4 -5.6,-3.7 -1.9,-1.3 -3.7,-2.6 -5.6,-4 -1.7,-1.4 -3.5,-2.8 -5.2,-4.2 -1.7,-1.5 -3.4,-3 -5.1,-4.6 -1.6,-1.5 -3.2,-3.1 -4.8,-4.7 -1.6,-1.7 -3.1,-3.3 -4.6,-5 -1.5,-1.8 -2.9,-3.5 -4.3,-5.3 -1.4,-1.8 -2.8,-3.6 -4.1,-5.4 -1.3,-1.9 -2.6,-3.7 -3.8,-5.6 -1.2,-1.9 -2.4,-3.9 -3.5,-5.9 -1.2,-1.9 -2.2,-3.9 -3.2,-6 -1.1,-2 -2,-4 -2.9,-6.1 -0.9,-2.1 -1.8,-4.2 -2.7,-6.3 -0.8,-2.1 -1.5,-4.2 -2.2,-6.4 -0.7,-2.1 -1.4,-4.3 -2,-6.5 -0.6,-2.1 -1.1,-4.3 -1.6,-6.5 -0.5,-2.2 -0.9,-4.5 -1.3,-6.7 -0.4,-2.2 -0.7,-4.4 -1,-6.7 -0.4,-2.2 -0.6,-4.5 -0.9,-6.8 0,-2.2 0,-4.5 0,-6.7 0,-0.8 0,-1.7 0,-2.6 0,-2.2 0,-4.5 0,-6.7 0,-0.7 0,-1.5 0.1,-2.2 0.2,-2.2 0.5,-4.5 0.9,-6.7 0.2,-2.3 0.5,-4.6 0.9,-6.9 0.4,-2.2 0.9,-4.4 1.4,-6.7 0.4,-2 0.8,-4 1.3,-6 0,-0.2 0,-0.5 0,-0.8 0.3,-0.7 0.6,-1.4 0.9,-2 0.9,-3 1.9,-6 3,-8.9 0.8,-2.2 1.6,-4.3 2.5,-6.3 0.9,-2.1 1.8,-4.2 2.7,-6.2 1.1,-2 2.1,-4 3.2,-6 1.1,-2 2.2,-3.9 3.4,-5.9 1.2,-1.9 2.4,-3.8 3.7,-5.7 1.2,-1.8 2.5,-3.7 3.9,-5.5 1.3,-1.8 2.8,-3.5 4.2,-5.2 1.5,-1.8 3,-3.5 4.6,-5.1 1.5,-1.6 3.1,-3.2 4.7,-4.8 1.7,-1.6 3.3,-3.1 5,-4.6 1.8,-1.5 3.5,-3 5.3,-4.4 1.8,-1.4 3.6,-2.7 5.4,-4.1 1.9,-1.3 3.7,-2.5 5.6,-3.7 1.9,-1.3 3.8,-2.5 5.8,-3.6 2,-1.1 4,-2.2 6,-3.2 2,-1 4.1,-2 6.2,-2.9 2,-0.9 4.1,-1.8 6.2,-2.6 2.1,-0.8 4.3,-1.6 6.4,-2.3 2.2,-0.7 4.4,-1.4 6.6,-1.9 2.2,-0.6 4.3,-1.2 6.6,-1.7 2.2,-0.4 4.3,-0.9 6.6,-1.2 2.2,-0.4 4.4,-0.8 6.7,-1 2.2,-0.4 4.4,-0.7 6.7,-0.9 2.2,-0.1 4.5,-0.1 6.8,0 0.8,0 1.7,0 2.6,0 2.3,-0.1 4.5,-0.1 6.8,0 0.7,0 1.4,0 2.1,0 2.3,0.3 4.6,0.6 6.9,0.9 2.2,0.3 4.4,0.6 6.6,0.9 2.3,0.5 4.5,1 6.7,1.5 2,0.4 4,0.8 6,1.3 0.3,0 0.6,0 0.9,0 0.7,0.2 1.4,0.6 2,0.9 3,0.9 6.1,1.8 9,2.9 2.1,0.9 4.2,1.7 6.2,2.6 2.1,0.9 4.2,1.8 6.3,2.8 2,1 4,2.1 5.9,3.2 2,1 4,2.1 6,3.3 1.9,1.2 3.8,2.4 5.7,3.7 1.8,1.3 3.7,2.6 5.5,4 1.8,1.4 3.5,2.8 5.2,4.3 1.8,1.4 3.4,2.9 5.1,4.4 1.7,1.6 3.2,3.2 4.8,4.8 1.6,1.6 3.1,3.2 4.6,4.9 1.5,1.7 3,3.4 4.4,5.2 1.4,1.8 2.7,3.6 4,5.5 1.4,1.8 2.6,3.7 3.9,5.6 1.2,1.9 2.3,3.8 3.5,5.8 1.1,2 2.1,4 3.1,6.1 1.1,2 2,4 2.9,6 0.9,2.1 1.8,4.2 2.6,6.3 0.8,2.1 1.6,4.2 2.3,6.4 0.7,2.1 1.3,4.3 1.9,6.4 0.7,2.2 1.2,4.4 1.7,6.6 0.5,2.3 0.9,4.5 1.3,6.7 0.4,2.3 0.7,4.5 1,6.7 0.4,2.3 0.7,4.6 0.9,6.8 0.1,2.3 0.1,4.5 0,6.7 0,0.9 0,1.8 0,2.7 0.1,2.3 0.1,4.5 0,6.8 0,0.7 0,1.4 -0.1,2.1 -0.2,2.3 -0.5,4.6 -0.9,6.9 -0.2,2.3 -0.5,4.5 -0.9,6.7 -0.4,2.3 -0.9,4.5 -1.4,6.7 -0.4,2 -0.8,4 -1.3,6 0,0.3 0,0.6 0,0.9 -0.3,0.7 -0.6,1.3 -0.9,2 -0.9,3 -1.9,5.9 -3,8.8 -0.7,2.2 -1.6,4.3 -2.5,6.4 -0.9,2.1 -1.8,4.1 -2.7,6.1 -1,2.1 -2.1,4.1 -3.2,6 -1.1,2 -2.2,4 -3.3,5.9 -1.2,1.9 -2.5,3.8 -3.7,5.6 -1.3,1.9 -2.7,3.7 -4,5.6 -1.4,1.7 -2.8,3.5 -4.3,5.2 -1.5,1.7 -3,3.5 -4.5,5.2 -1.6,1.6 -3.2,3.2 -4.8,4.8 -1.7,1.6 -3.3,3.1 -5,4.6 -1.7,1.5 -3.5,2.9 -5.2,4.3 -1.8,1.5 -3.7,2.8 -5.5,4.1 -1.9,1.3 -3.8,2.6 -5.7,3.8 -1.9,1.2 -3.8,2.4 -5.8,3.6 -2,1 -4,2.1 -6,3.1 -2,1.1 -4,2 -6.1,3 -2.1,0.9 -4.2,1.7 -6.3,2.5 -2.1,0.9 -4.2,1.7 -6.3,2.4 -2.2,0.7 -4.3,1.3 -6.5,1.9 -2.2,0.6 -4.4,1.2 -6.7,1.7 -2.1,0.5 -4.3,0.9 -6.6,1.3 -2.2,0.4 -4.5,0.7 -6.8,1 -2.2,0.3 -4.4,0.6 -6.6,0.9 -2.3,0 -4.6,0 -6.8,0 -0.9,0 -1.7,0 -2.6,0 z" /><path
         id="path26"
         style="fill:#ffffff;fill-opacity:1;fill-rule:nonzero;stroke:none"
         d="m 11978.8,12868.4 c -2.3,0 -4.6,0 -6.9,0 -0.6,0 -1.3,-0.1 -2,-0.1 -2.3,-0.2 -4.6,-0.5 -6.9,-0.9 -2.3,-0.3 -4.5,-0.6 -6.7,-0.9 -2.3,-0.4 -4.5,-0.9 -6.7,-1.5 -2,-0.4 -4,-0.7 -6,-1.2 -0.3,0 -0.6,0 -0.9,0 -0.7,-0.3 -1.3,-0.6 -2,-0.9 -3,-0.9 -5.9,-1.9 -8.9,-3 -2.1,-0.8 -4.1,-1.7 -6.2,-2.6 -2.1,-0.9 -4.2,-1.7 -6.3,-2.8 -2,-1 -4,-2 -5.9,-3.1 -2,-1.1 -4,-2.2 -5.9,-3.4 -1.9,-1.2 -3.8,-2.4 -5.6,-3.7 -1.9,-1.3 -3.7,-2.6 -5.6,-4 -1.7,-1.4 -3.5,-2.8 -5.2,-4.2 -1.7,-1.5 -3.4,-3 -5.1,-4.6 -1.6,-1.5 -3.2,-3.1 -4.8,-4.7 -1.6,-1.7 -3.1,-3.3 -4.6,-5 -1.5,-1.8 -2.9,-3.5 -4.3,-5.3 -1.4,-1.8 -2.8,-3.6 -4.1,-5.4 -1.3,-1.9 -2.6,-3.7 -3.8,-5.6 -1.2,-1.9 -2.4,-3.9 -3.5,-5.9 -1.2,-1.9 -2.2,-3.9 -3.2,-6 -1.1,-2 -2,-4 -2.9,-6.1 -0.9,-2.1 -1.8,-4.2 -2.7,-6.3 -0.8,-2.1 -1.5,-4.2 -2.2,-6.4 -0.7,-2.1 -1.4,-4.3 -2,-6.5 -0.6,-2.1 -1.1,-4.3 -1.6,-6.5 -0.5,-2.2 -0.9,-4.5 -1.3,-6.7 -0.4,-2.2 -0.7,-4.4 -1,-6.7 -0.4,-2.2 -0.6,-4.5 -0.9,-6.8 0,-2.2 0,-4.5 0,-6.7 0,-0.8 0,-1.7 0,-2.6 0,-2.2 0,-4.5 0,-6.7 0,-0.7 0,-1.5 0.1,-2.2 0.2,-2.2 0.5,-4.5 0.9,-6.7 0.2,-2.3 0.5,-4.6 0.9,-6.9 0.4,-2.2 0.9,-4.4 1.4,-6.7 0.4,-2 0.8,-4 1.3,-6 0,-0.2 0,-0.5 0,-0.8 0.3,-0.7 0.6,-1.4 0.9,-2 0.9,-3 1.9,-6 3,-8.9 0.8,-2.2 1.6,-4.3 2.5,-6.3 0.9,-2.1 1.8,-4.2 2.7,-6.2 1.1,-2 2.1,-4 3.2,-6 1.1,-2 2.2,-3.9 3.4,-5.9 1.2,-1.9 2.4,-3.8 3.7,-5.7 1.2,-1.8 2.5,-3.7 3.9,-5.5 1.3,-1.8 2.8,-3.5 4.2,-5.2 1.5,-1.8 3,-3.5 4.6,-5.1 1.5,-1.6 3.1,-3.2 4.7,-4.8 1.7,-1.6 3.3,-3.1 5,-4.6 1.8,-1.5 3.5,-3 5.3,-4.4 1.8,-1.4 3.6,-2.7 5.4,-4.1 1.9,-1.3 3.7,-2.5 5.6,-3.7 1.9,-1.3 3.8,-2.5 5.8,-3.6 2,-1.1 4,-2.2 6,-3.2 2,-1 4.1,-2 6.2,-2.9 2,-0.9 4.1,-1.8 6.2,-2.6 2.1,-0.8 4.3,-1.6 6.4,-2.3 2.2,-0.7 4.4,-1.4 6.6,-1.9 2.2,-0.6 4.3,-1.2 6.6,-1.7 2.2,-0.4 4.3,-0.9 6.6,-1.2 2.2,-0.4 4.4,-0.8 6.7,-1 2.2,-0.4 4.4,-0.7 6.7,-0.9 2.2,-0.1 4.5,-0.1 6.8,0 0.8,0 1.7,0 2.6,0 2.3,-0.1 4.5,-0.1 6.8,0 0.7,0 1.4,0 2.1,0 2.3,0.3 4.6,0.6 6.9,0.9 2.2,0.3 4.4,0.6 6.6,0.9 2.3,0.5 4.5,1 6.7,1.5 2,0.4 4,0.8 6,1.3 0.3,0 0.6,0 0.9,0 0.7,0.2 1.4,0.6 2,0.9 3,0.9 6.1,1.8 9,2.9 2.1,0.9 4.2,1.7 6.2,2.6 2.1,0.9 4.2,1.8 6.3,2.8 2,1 4,2.1 5.9,3.2 2,1 4,2.1 6,3.3 1.9,1.2 3.8,2.4 5.7,3.7 1.8,1.3 3.7,2.6 5.5,4 1.8,1.4 3.5,2.8 5.2,4.3 1.8,1.4 3.4,2.9 5.1,4.4 1.7,1.6 3.2,3.2 4.8,4.8 1.6,1.6 3.1,3.2 4.6,4.9 1.5,1.7 3,3.4 4.4,5.2 1.4,1.8 2.7,3.6 4,5.5 1.4,1.8 2.6,3.7 3.9,5.6 1.2,1.9 2.3,3.8 3.5,5.8 1.1,2 2.1,4 3.1,6.1 1.1,2 2,4 2.9,6 0.9,2.1 1.8,4.2 2.6,6.3 0.8,2.1 1.6,4.2 2.3,6.4 0.7,2.1 1.3,4.3 1.9,6.4 0.7,2.2 1.2,4.4 1.7,6.6 0.5,2.3 0.9,4.5 1.3,6.7 0.4,2.3 0.7,4.5 1,6.7 0.4,2.3 0.7,4.6 0.9,6.8 0.1,2.3 0.1,4.5 0,6.7 0,0.9 0,1.8 0,2.7 0.1,2.3 0.1,4.5 0,6.8 0,0.7 0,1.4 -0.1,2.1 -0.2,2.3 -0.5,4.6 -0.9,6.9 -0.2,2.3 -0.5,4.5 -0.9,6.7 -0.4,2.3 -0.9,4.5 -1.4,6.7 -0.4,2 -0.8,4 -1.3,6 0,0.3 0,0.6 0,0.9 -0.3,0.7 -0.6,1.3 -0.9,2 -0.9,3 -1.9,5.9 -3,8.8 -0.7,2.2 -1.6,4.3 -2.5,6.4 -0.9,2.1 -1.8,4.1 -2.7,6.1 -1,2.1 -2.1,4.1 -3.2,6 -1.1,2 -2.2,4 -3.3,5.9 -1.2,1.9 -2.5,3.8 -3.7,5.6 -1.3,1.9 -2.7,3.7 -4,5.6 -1.4,1.7 -2.8,3.5 -4.3,5.2 -1.5,1.7 -3,3.5 -4.5,5.2 -1.6,1.6 -3.2,3.2 -4.8,4.8 -1.7,1.6 -3.3,3.1 -5,4.6 -1.7,1.5 -3.5,2.9 -5.2,4.3 -1.8,1.5 -3.7,2.8 -5.5,4.1 -1.9,1.3 -3.8,2.6 -5.7,3.8 -1.9,1.2 -3.8,2.4 -5.8,3.6 -2,1 -4,2.1 -6,3.1 -2,1.1 -4,2 -6.1,3 -2.1,0.9 -4.2,1.7 -6.3,2.5 -2.1,0.9 -4.2,1.7 -6.3,2.4 -2.2,0.7 -4.3,1.3 -6.5,1.9 -2.2,0.6 -4.4,1.2 -6.7,1.7 -2.1,0.5 -4.3,0.9 -6.6,1.3 -2.2,0.4 -4.5,0.7 -6.8,1 -2.2,0.3 -4.4,0.6 -6.6,0.9 -2.3,0 -4.6,0 -6.8,0 -0.9,0 -1.7,0 -2.6,0 z" /><path
         id="path28"
         style="fill:#ffffff;fill-opacity:1;fill-rule:nonzero;stroke:none"
         d="m 11978.8,12868.4 c -2.3,0 -4.6,0 -6.9,0 -0.6,0 -1.3,-0.1 -2,-0.1 -2.3,-0.2 -4.6,-0.5 -6.9,-0.9 -2.3,-0.3 -4.5,-0.6 -6.7,-0.9 -2.3,-0.4 -4.5,-0.9 -6.7,-1.5 -2,-0.4 -4,-0.7 -6,-1.2 -0.3,0 -0.6,0 -0.9,0 -0.7,-0.3 -1.3,-0.6 -2,-0.9 -3,-0.9 -5.9,-1.9 -8.9,-3 -2.1,-0.8 -4.1,-1.7 -6.2,-2.6 -2.1,-0.9 -4.2,-1.7 -6.3,-2.8 -2,-1 -4,-2 -5.9,-3.1 -2,-1.1 -4,-2.2 -5.9,-3.4 -1.9,-1.2 -3.8,-2.4 -5.6,-3.7 -1.9,-1.3 -3.7,-2.6 -5.6,-4 -1.7,-1.4 -3.5,-2.8 -5.2,-4.2 -1.7,-1.5 -3.4,-3 -5.1,-4.6 -1.6,-1.5 -3.2,-3.1 -4.8,-4.7 -1.6,-1.7 -3.1,-3.3 -4.6,-5 -1.5,-1.8 -2.9,-3.5 -4.3,-5.3 -1.4,-1.8 -2.8,-3.6 -4.1,-5.4 -1.3,-1.9 -2.6,-3.7 -3.8,-5.6 -1.2,-1.9 -2.4,-3.9 -3.5,-5.9 -1.2,-1.9 -2.2,-3.9 -3.2,-6 -1.1,-2 -2,-4 -2.9,-6.1 -0.9,-2.1 -1.8,-4.2 -2.7,-6.3 -0.8,-2.1 -1.5,-4.2 -2.2,-6.4 -0.7,-2.1 -1.4,-4.3 -2,-6.5 -0.6,-2.1 -1.1,-4.3 -1.6,-6.5 -0.5,-2.2 -0.9,-4.5 -1.3,-6.7 -0.4,-2.2 -0.7,-4.4 -1,-6.7 -0.4,-2.2 -0.6,-4.5 -0.9,-6.8 0,-2.2 0,-4.5 0,-6.7 0,-0.8 0,-1.7 0,-2.6 0,-2.2 0,-4.5 0,-6.7 0,-0.7 0,-1.5 0.1,-2.2 0.2,-2.2 0.5,-4.5 0.9,-6.7 0.2,-2.3 0.5,-4.6 0.9,-6.9 0.4,-2.2 0.9,-4.4 1.4,-6.7 0.4,-2 0.8,-4 1.3,-6 0,-0.2 0,-0.5 0,-0.8 0.3,-0.7 0.6,-1.4 0.9,-2 0.9,-3 1.9,-6 3,-8.9 0.8,-2.2 1.6,-4.3 2.5,-6.3 0.9,-2.1 1.8,-4.2 2.7,-6.2 1.1,-2 2.1,-4 3.2,-6 1.1,-2 2.2,-3.9 3.4,-5.9 1.2,-1.9 2.4,-3.8 3.7,-5.7 1.2,-1.8 2.5,-3.7 3.9,-5.5 1.3,-1.8 2.8,-3.5 4.2,-5.2 1.5,-1.8 3,-3.5 4.6,-5.1 1.5,-1.6 3.1,-3.2 4.7,-4.8 1.7,-1.6 3.3,-3.1 5,-4.6 1.8,-1.5 3.5,-3 5.3,-4.4 1.8,-1.4 3.6,-2.7 5.4,-4.1 1.9,-1.3 3.7,-2.5 5.6,-3.7 1.9,-1.3 3.8,-2.5 5.8,-3.6 2,-1.1 4,-2.2 6,-3.2 2,-1 4.1,-2 6.2,-2.9 2,-0.9 4.1,-1.8 6.2,-2.6 2.1,-0.8 4.3,-1.6 6.4,-2.3 2.2,-0.7 4.4,-1.4 6.6,-1.9 2.2,-0.6 4.3,-1.2 6.6,-1.7 2.2,-0.4 4.3,-0.9 6.6,-1.2 2.2,-0.4 4.4,-0.8 6.7,-1 2.2,-0.4 4.4,-0.7 6.7,-0.9 2.2,-0.1 4.5,-0.1 6.8,0 0.8,0 1.7,0 2.6,0 2.3,-0.1 4.5,-0.1 6.8,0 0.7,0 1.4,0 2.1,0 2.3,0.3 4.6,0.6 6.9,0.9 2.2,0.3 4.4,0.6 6.6,0.9 2.3,0.5 4.5,1 6.7,1.5 2,0.4 4,0.8 6,1.3 0.3,0 0.6,0 0.9,0 0.7,0.2 1.4,0.6 2,0.9 3,0.9 6.1,1.8 9,2.9 2.1,0.9 4.2,1.7 6.2,2.6 2.1,0.9 4.2,1.8 6.3,2.8 2,1 4,2.1 5.9,3.2 2,1 4,2.1 6,3.3 1.9,1.2 3.8,2.4 5.7,3.7 1.8,1.3 3.7,2.6 5.5,4 1.8,1.4 3.5,2.8 5.2,4.3 1.8,1.4 3.4,2.9 5.1,4.4 1.7,1.6 3.2,3.2 4.8,4.8 1.6,1.6 3.1,3.2 4.6,4.9 1.5,1.7 3,3.4 4.4,5.2 1.4,1.8 2.7,3.6 4,5.5 1.4,1.8 2.6,3.7 3.9,5.6 1.2,1.9 2.3,3.8 3.5,5.8 1.1,2 2.1,4 3.1,6.1 1.1,2 2,4 2.9,6 0.9,2.1 1.8,4.2 2.6,6.3 0.8,2.1 1.6,4.2 2.3,6.4 0.7,2.1 1.3,4.3 1.9,6.4 0.7,2.2 1.2,4.4 1.7,6.6 0.5,2.3 0.9,4.5 1.3,6.7 0.4,2.3 0.7,4.5 1,6.7 0.4,2.3 0.7,4.6 0.9,6.8 0.1,2.3 0.1,4.5 0,6.7 0,0.9 0,1.8 0,2.7 0.1,2.3 0.1,4.5 0,6.8 0,0.7 0,1.4 -0.1,2.1 -0.2,2.3 -0.5,4.6 -0.9,6.9 -0.2,2.3 -0.5,4.5 -0.9,6.7 -0.4,2.3 -0.9,4.5 -1.4,6.7 -0.4,2 -0.8,4 -1.3,6 0,0.3 0,0.6 0,0.9 -0.3,0.7 -0.6,1.3 -0.9,2 -0.9,3 -1.9,5.9 -3,8.8 -0.7,2.2 -1.6,4.3 -2.5,6.4 -0.9,2.1 -1.8,4.1 -2.7,6.1 -1,2.1 -2.1,4.1 -3.2,6 -1.1,2 -2.2,4 -3.3,5.9 -1.2,1.9 -2.5,3.8 -3.7,5.6 -1.3,1.9 -2.7,3.7 -4,5.6 -1.4,1.7 -2.8,3.5 -4.3,5.2 -1.5,1.7 -3,3.5 -4.5,5.2 -1.6,1.6 -3.2,3.2 -4.8,4.8 -1.7,1.6 -3.3,3.1 -5,4.6 -1.7,1.5 -3.5,2.9 -5.2,4.3 -1.8,1.5 -3.7,2.8 -5.5,4.1 -1.9,1.3 -3.8,2.6 -5.7,3.8 -1.9,1.2 -3.8,2.4 -5.8,3.6 -2,1 -4,2.1 -6,3.1 -2,1.1 -4,2 -6.1,3 -2.1,0.9 -4.2,1.7 -6.3,2.5 -2.1,0.9 -4.2,1.7 -6.3,2.4 -2.2,0.7 -4.3,1.3 -6.5,1.9 -2.2,0.6 -4.4,1.2 -6.7,1.7 -2.1,0.5 -4.3,0.9 -6.6,1.3 -2.2,0.4 -4.5,0.7 -6.8,1 -2.2,0.3 -4.4,0.6 -6.6,0.9 -2.3,0 -4.6,0 -6.8,0 -0.9,0 -1.7,0 -2.6,0 z" /><path
         id="path30"
         style="fill:#ffffff;fill-opacity:1;fill-rule:nonzero;stroke:none"
         d="m 11978.8,12868.4 c -2.3,0 -4.6,0 -6.9,0 -0.6,0 -1.3,-0.1 -2,-0.1 -2.3,-0.2 -4.6,-0.5 -6.9,-0.9 -2.3,-0.3 -4.5,-0.6 -6.7,-0.9 -2.3,-0.4 -4.5,-0.9 -6.7,-1.5 -2,-0.4 -4,-0.7 -6,-1.2 -0.3,0 -0.6,0 -0.9,0 -0.7,-0.3 -1.3,-0.6 -2,-0.9 -3,-0.9 -5.9,-1.9 -8.9,-3 -2.1,-0.8 -4.1,-1.7 -6.2,-2.6 -2.1,-0.9 -4.2,-1.7 -6.3,-2.8 -2,-1 -4,-2 -5.9,-3.1 -2,-1.1 -4,-2.2 -5.9,-3.4 -1.9,-1.2 -3.8,-2.4 -5.6,-3.7 -1.9,-1.3 -3.7,-2.6 -5.6,-4 -1.7,-1.4 -3.5,-2.8 -5.2,-4.2 -1.7,-1.5 -3.4,-3 -5.1,-4.6 -1.6,-1.5 -3.2,-3.1 -4.8,-4.7 -1.6,-1.7 -3.1,-3.3 -4.6,-5 -1.5,-1.8 -2.9,-3.5 -4.3,-5.3 -1.4,-1.8 -2.8,-3.6 -4.1,-5.4 -1.3,-1.9 -2.6,-3.7 -3.8,-5.6 -1.2,-1.9 -2.4,-3.9 -3.5,-5.9 -1.2,-1.9 -2.2,-3.9 -3.2,-6 -1.1,-2 -2,-4 -2.9,-6.1 -0.9,-2.1 -1.8,-4.2 -2.7,-6.3 -0.8,-2.1 -1.5,-4.2 -2.2,-6.4 -0.7,-2.1 -1.4,-4.3 -2,-6.5 -0.6,-2.1 -1.1,-4.3 -1.6,-6.5 -0.5,-2.2 -0.9,-4.5 -1.3,-6.7 -0.4,-2.2 -0.7,-4.4 -1,-6.7 -0.4,-2.2 -0.6,-4.5 -0.9,-6.8 0,-2.2 0,-4.5 0,-6.7 0,-0.8 0,-1.7 0,-2.6 0,-2.2 0,-4.5 0,-6.7 0,-0.7 0,-1.5 0.1,-2.2 0.2,-2.2 0.5,-4.5 0.9,-6.7 0.2,-2.3 0.5,-4.6 0.9,-6.9 0.4,-2.2 0.9,-4.4 1.4,-6.7 0.4,-2 0.8,-4 1.3,-6 0,-0.2 0,-0.5 0,-0.8 0.3,-0.7 0.6,-1.4 0.9,-2 0.9,-3 1.9,-6 3,-8.9 0.8,-2.2 1.6,-4.3 2.5,-6.3 0.9,-2.1 1.8,-4.2 2.7,-6.2 1.1,-2 2.1,-4 3.2,-6 1.1,-2 2.2,-3.9 3.4,-5.9 1.2,-1.9 2.4,-3.8 3.7,-5.7 1.2,-1.8 2.5,-3.7 3.9,-5.5 1.3,-1.8 2.8,-3.5 4.2,-5.2 1.5,-1.8 3,-3.5 4.6,-5.1 1.5,-1.6 3.1,-3.2 4.7,-4.8 1.7,-1.6 3.3,-3.1 5,-4.6 1.8,-1.5 3.5,-3 5.3,-4.4 1.8,-1.4 3.6,-2.7 5.4,-4.1 1.9,-1.3 3.7,-2.5 5.6,-3.7 1.9,-1.3 3.8,-2.5 5.8,-3.6 2,-1.1 4,-2.2 6,-3.2 2,-1 4.1,-2 6.2,-2.9 2,-0.9 4.1,-1.8 6.2,-2.6 2.1,-0.8 4.3,-1.6 6.4,-2.3 2.2,-0.7 4.4,-1.4 6.6,-1.9 2.2,-0.6 4.3,-1.2 6.6,-1.7 2.2,-0.4 4.3,-0.9 6.6,-1.2 2.2,-0.4 4.4,-0.8 6.7,-1 2.2,-0.4 4.4,-0.7 6.7,-0.9 2.2,-0.1 4.5,-0.1 6.8,0 0.8,0 1.7,0 2.6,0 2.3,-0.1 4.5,-0.1 6.8,0 0.7,0 1.4,0 2.1,0 2.3,0.3 4.6,0.6 6.9,0.9 2.2,0.3 4.4,0.6 6.6,0.9 2.3,0.5 4.5,1 6.7,1.5 2,0.4 4,0.8 6,1.3 0.3,0 0.6,0 0.9,0 0.7,0.2 1.4,0.6 2,0.9 3,0.9 6.1,1.8 9,2.9 2.1,0.9 4.2,1.7 6.2,2.6 2.1,0.9 4.2,1.8 6.3,2.8 2,1 4,2.1 5.9,3.2 2,1 4,2.1 6,3.3 1.9,1.2 3.8,2.4 5.7,3.7 1.8,1.3 3.7,2.6 5.5,4 1.8,1.4 3.5,2.8 5.2,4.3 1.8,1.4 3.4,2.9 5.1,4.4 1.7,1.6 3.2,3.2 4.8,4.8 1.6,1.6 3.1,3.2 4.6,4.9 1.5,1.7 3,3.4 4.4,5.2 1.4,1.8 2.7,3.6 4,5.5 1.4,1.8 2.6,3.7 3.9,5.6 1.2,1.9 2.3,3.8 3.5,5.8 1.1,2 2.1,4 3.1,6.1 1.1,2 2,4 2.9,6 0.9,2.1 1.8,4.2 2.6,6.3 0.8,2.1 1.6,4.2 2.3,6.4 0.7,2.1 1.3,4.3 1.9,6.4 0.7,2.2 1.2,4.4 1.7,6.6 0.5,2.3 0.9,4.5 1.3,6.7 0.4,2.3 0.7,4.5 1,6.7 0.4,2.3 0.7,4.6 0.9,6.8 0.1,2.3 0.1,4.5 0,6.7 0,0.9 0,1.8 0,2.7 0.1,2.3 0.1,4.5 0,6.8 0,0.7 0,1.4 -0.1,2.1 -0.2,2.3 -0.5,4.6 -0.9,6.9 -0.2,2.3 -0.5,4.5 -0.9,6.7 -0.4,2.3 -0.9,4.5 -1.4,6.7 -0.4,2 -0.8,4 -1.3,6 0,0.3 0,0.6 0,0.9 -0.3,0.7 -0.6,1.3 -0.9,2 -0.9,3 -1.9,5.9 -3,8.8 -0.7,2.2 -1.6,4.3 -2.5,6.4 -0.9,2.1 -1.8,4.1 -2.7,6.1 -1,2.1 -2.1,4.1 -3.2,6 -1.1,2 -2.2,4 -3.3,5.9 -1.2,1.9 -2.5,3.8 -3.7,5.6 -1.3,1.9 -2.7,3.7 -4,5.6 -1.4,1.7 -2.8,3.5 -4.3,5.2 -1.5,1.7 -3,3.5 -4.5,5.2 -1.6,1.6 -3.2,3.2 -4.8,4.8 -1.7,1.6 -3.3,3.1 -5,4.6 -1.7,1.5 -3.5,2.9 -5.2,4.3 -1.8,1.5 -3.7,2.8 -5.5,4.1 -1.9,1.3 -3.8,2.6 -5.7,3.8 -1.9,1.2 -3.8,2.4 -5.8,3.6 -2,1 -4,2.1 -6,3.1 -2,1.1 -4,2 -6.1,3 -2.1,0.9 -4.2,1.7 -6.3,2.5 -2.1,0.9 -4.2,1.7 -6.3,2.4 -2.2,0.7 -4.3,1.3 -6.5,1.9 -2.2,0.6 -4.4,1.2 -6.7,1.7 -2.1,0.5 -4.3,0.9 -6.6,1.3 -2.2,0.4 -4.5,0.7 -6.8,1 -2.2,0.3 -4.4,0.6 -6.6,0.9 -2.3,0 -4.6,0 -6.8,0 -0.9,0 -1.7,0 -2.6,0 z" /><path
         id="path32"
         style="fill:#ffffff;fill-opacity:1;fill-rule:nonzero;stroke:none"
         d="m 11978.8,12868.4 c -2.3,0 -4.6,0 -6.9,0 -0.6,0 -1.3,-0.1 -2,-0.1 -2.3,-0.2 -4.6,-0.5 -6.9,-0.9 -2.3,-0.3 -4.5,-0.6 -6.7,-0.9 -2.3,-0.4 -4.5,-0.9 -6.7,-1.5 -2,-0.4 -4,-0.7 -6,-1.2 -0.3,0 -0.6,0 -0.9,0 -0.7,-0.3 -1.3,-0.6 -2,-0.9 -3,-0.9 -5.9,-1.9 -8.9,-3 -2.1,-0.8 -4.1,-1.7 -6.2,-2.6 -2.1,-0.9 -4.2,-1.7 -6.3,-2.8 -2,-1 -4,-2 -5.9,-3.1 -2,-1.1 -4,-2.2 -5.9,-3.4 -1.9,-1.2 -3.8,-2.4 -5.6,-3.7 -1.9,-1.3 -3.7,-2.6 -5.6,-4 -1.7,-1.4 -3.5,-2.8 -5.2,-4.2 -1.7,-1.5 -3.4,-3 -5.1,-4.6 -1.6,-1.5 -3.2,-3.1 -4.8,-4.7 -1.6,-1.7 -3.1,-3.3 -4.6,-5 -1.5,-1.8 -2.9,-3.5 -4.3,-5.3 -1.4,-1.8 -2.8,-3.6 -4.1,-5.4 -1.3,-1.9 -2.6,-3.7 -3.8,-5.6 -1.2,-1.9 -2.4,-3.9 -3.5,-5.9 -1.2,-1.9 -2.2,-3.9 -3.2,-6 -1.1,-2 -2,-4 -2.9,-6.1 -0.9,-2.1 -1.8,-4.2 -2.7,-6.3 -0.8,-2.1 -1.5,-4.2 -2.2,-6.4 -0.7,-2.1 -1.4,-4.3 -2,-6.5 -0.6,-2.1 -1.1,-4.3 -1.6,-6.5 -0.5,-2.2 -0.9,-4.5 -1.3,-6.7 -0.4,-2.2 -0.7,-4.4 -1,-6.7 -0.4,-2.2 -0.6,-4.5 -0.9,-6.8 0,-2.2 0,-4.5 0,-6.7 0,-0.8 0,-1.7 0,-2.6 0,-2.2 0,-4.5 0,-6.7 0,-0.7 0,-1.5 0.1,-2.2 0.2,-2.2 0.5,-4.5 0.9,-6.7 0.2,-2.3 0.5,-4.6 0.9,-6.9 0.4,-2.2 0.9,-4.4 1.4,-6.7 0.4,-2 0.8,-4 1.3,-6 0,-0.2 0,-0.5 0,-0.8 0.3,-0.7 0.6,-1.4 0.9,-2 0.9,-3 1.9,-6 3,-8.9 0.8,-2.2 1.6,-4.3 2.5,-6.3 0.9,-2.1 1.8,-4.2 2.7,-6.2 1.1,-2 2.1,-4 3.2,-6 1.1,-2 2.2,-3.9 3.4,-5.9 1.2,-1.9 2.4,-3.8 3.7,-5.7 1.2,-1.8 2.5,-3.7 3.9,-5.5 1.3,-1.8 2.8,-3.5 4.2,-5.2 1.5,-1.8 3,-3.5 4.6,-5.1 1.5,-1.6 3.1,-3.2 4.7,-4.8 1.7,-1.6 3.3,-3.1 5,-4.6 1.8,-1.5 3.5,-3 5.3,-4.4 1.8,-1.4 3.6,-2.7 5.4,-4.1 1.9,-1.3 3.7,-2.5 5.6,-3.7 1.9,-1.3 3.8,-2.5 5.8,-3.6 2,-1.1 4,-2.2 6,-3.2 2,-1 4.1,-2 6.2,-2.9 2,-0.9 4.1,-1.8 6.2,-2.6 2.1,-0.8 4.3,-1.6 6.4,-2.3 2.2,-0.7 4.4,-1.4 6.6,-1.9 2.2,-0.6 4.3,-1.2 6.6,-1.7 2.2,-0.4 4.3,-0.9 6.6,-1.2 2.2,-0.4 4.4,-0.8 6.7,-1 2.2,-0.4 4.4,-0.7 6.7,-0.9 2.2,-0.1 4.5,-0.1 6.8,0 0.8,0 1.7,0 2.6,0 2.3,-0.1 4.5,-0.1 6.8,0 0.7,0 1.4,0 2.1,0 2.3,0.3 4.6,0.6 6.9,0.9 2.2,0.3 4.4,0.6 6.6,0.9 2.3,0.5 4.5,1 6.7,1.5 2,0.4 4,0.8 6,1.3 0.3,0 0.6,0 0.9,0 0.7,0.2 1.4,0.6 2,0.9 3,0.9 6.1,1.8 9,2.9 2.1,0.9 4.2,1.7 6.2,2.6 2.1,0.9 4.2,1.8 6.3,2.8 2,1 4,2.1 5.9,3.2 2,1 4,2.1 6,3.3 1.9,1.2 3.8,2.4 5.7,3.7 1.8,1.3 3.7,2.6 5.5,4 1.8,1.4 3.5,2.8 5.2,4.3 1.8,1.4 3.4,2.9 5.1,4.4 1.7,1.6 3.2,3.2 4.8,4.8 1.6,1.6 3.1,3.2 4.6,4.9 1.5,1.7 3,3.4 4.4,5.2 1.4,1.8 2.7,3.6 4,5.5 1.4,1.8 2.6,3.7 3.9,5.6 1.2,1.9 2.3,3.8 3.5,5.8 1.1,2 2.1,4 3.1,6.1 1.1,2 2,4 2.9,6 0.9,2.1 1.8,4.2 2.6,6.3 0.8,2.1 1.6,4.2 2.3,6.4 0.7,2.1 1.3,4.3 1.9,6.4 0.7,2.2 1.2,4.4 1.7,6.6 0.5,2.3 0.9,4.5 1.3,6.7 0.4,2.3 0.7,4.5 1,6.7 0.4,2.3 0.7,4.6 0.9,6.8 0.1,2.3 0.1,4.5 0,6.7 0,0.9 0,1.8 0,2.7 0.1,2.3 0.1,4.5 0,6.8 0,0.7 0,1.4 -0.1,2.1 -0.2,2.3 -0.5,4.6 -0.9,6.9 -0.2,2.3 -0.5,4.5 -0.9,6.7 -0.4,2.3 -0.9,4.5 -1.4,6.7 -0.4,2 -0.8,4 -1.3,6 0,0.3 0,0.6 0,0.9 -0.3,0.7 -0.6,1.3 -0.9,2 -0.9,3 -1.9,5.9 -3,8.8 -0.7,2.2 -1.6,4.3 -2.5,6.4 -0.9,2.1 -1.8,4.1 -2.7,6.1 -1,2.1 -2.1,4.1 -3.2,6 -1.1,2 -2.2,4 -3.3,5.9 -1.2,1.9 -2.5,3.8 -3.7,5.6 -1.3,1.9 -2.7,3.7 -4,5.6 -1.4,1.7 -2.8,3.5 -4.3,5.2 -1.5,1.7 -3,3.5 -4.5,5.2 -1.6,1.6 -3.2,3.2 -4.8,4.8 -1.7,1.6 -3.3,3.1 -5,4.6 -1.7,1.5 -3.5,2.9 -5.2,4.3 -1.8,1.5 -3.7,2.8 -5.5,4.1 -1.9,1.3 -3.8,2.6 -5.7,3.8 -1.9,1.2 -3.8,2.4 -5.8,3.6 -2,1 -4,2.1 -6,3.1 -2,1.1 -4,2 -6.1,3 -2.1,0.9 -4.2,1.7 -6.3,2.5 -2.1,0.9 -4.2,1.7 -6.3,2.4 -2.2,0.7 -4.3,1.3 -6.5,1.9 -2.2,0.6 -4.4,1.2 -6.7,1.7 -2.1,0.5 -4.3,0.9 -6.6,1.3 -2.2,0.4 -4.5,0.7 -6.8,1 -2.2,0.3 -4.4,0.6 -6.6,0.9 -2.3,0 -4.6,0 -6.8,0 -0.9,0 -1.7,0 -2.6,0 z" /><path
         id="path34"
         style="fill:#ffffff;fill-opacity:1;fill-rule:nonzero;stroke:none"
         d="m 11978.8,12868.4 c -2.3,0 -4.6,0 -6.9,0 -0.6,0 -1.3,-0.1 -2,-0.1 -2.3,-0.2 -4.6,-0.5 -6.9,-0.9 -2.3,-0.3 -4.5,-0.6 -6.7,-0.9 -2.3,-0.4 -4.5,-0.9 -6.7,-1.5 -2,-0.4 -4,-0.7 -6,-1.2 -0.3,0 -0.6,0 -0.9,0 -0.7,-0.3 -1.3,-0.6 -2,-0.9 -3,-0.9 -5.9,-1.9 -8.9,-3 -2.1,-0.8 -4.1,-1.7 -6.2,-2.6 -2.1,-0.9 -4.2,-1.7 -6.3,-2.8 -2,-1 -4,-2 -5.9,-3.1 -2,-1.1 -4,-2.2 -5.9,-3.4 -1.9,-1.2 -3.8,-2.4 -5.6,-3.7 -1.9,-1.3 -3.7,-2.6 -5.6,-4 -1.7,-1.4 -3.5,-2.8 -5.2,-4.2 -1.7,-1.5 -3.4,-3 -5.1,-4.6 -1.6,-1.5 -3.2,-3.1 -4.8,-4.7 -1.6,-1.7 -3.1,-3.3 -4.6,-5 -1.5,-1.8 -2.9,-3.5 -4.3,-5.3 -1.4,-1.8 -2.8,-3.6 -4.1,-5.4 -1.3,-1.9 -2.6,-3.7 -3.8,-5.6 -1.2,-1.9 -2.4,-3.9 -3.5,-5.9 -1.2,-1.9 -2.2,-3.9 -3.2,-6 -1.1,-2 -2,-4 -2.9,-6.1 -0.9,-2.1 -1.8,-4.2 -2.7,-6.3 -0.8,-2.1 -1.5,-4.2 -2.2,-6.4 -0.7,-2.1 -1.4,-4.3 -2,-6.5 -0.6,-2.1 -1.1,-4.3 -1.6,-6.5 -0.5,-2.2 -0.9,-4.5 -1.3,-6.7 -0.4,-2.2 -0.7,-4.4 -1,-6.7 -0.4,-2.2 -0.6,-4.5 -0.9,-6.8 0,-2.2 0,-4.5 0,-6.7 0,-0.8 0,-1.7 0,-2.6 0,-2.2 0,-4.5 0,-6.7 0,-0.7 0,-1.5 0.1,-2.2 0.2,-2.2 0.5,-4.5 0.9,-6.7 0.2,-2.3 0.5,-4.6 0.9,-6.9 0.4,-2.2 0.9,-4.4 1.4,-6.7 0.4,-2 0.8,-4 1.3,-6 0,-0.2 0,-0.5 0,-0.8 0.3,-0.7 0.6,-1.4 0.9,-2 0.9,-3 1.9,-6 3,-8.9 0.8,-2.2 1.6,-4.3 2.5,-6.3 0.9,-2.1 1.8,-4.2 2.7,-6.2 1.1,-2 2.1,-4 3.2,-6 1.1,-2 2.2,-3.9 3.4,-5.9 1.2,-1.9 2.4,-3.8 3.7,-5.7 1.2,-1.8 2.5,-3.7 3.9,-5.5 1.3,-1.8 2.8,-3.5 4.2,-5.2 1.5,-1.8 3,-3.5 4.6,-5.1 1.5,-1.6 3.1,-3.2 4.7,-4.8 1.7,-1.6 3.3,-3.1 5,-4.6 1.8,-1.5 3.5,-3 5.3,-4.4 1.8,-1.4 3.6,-2.7 5.4,-4.1 1.9,-1.3 3.7,-2.5 5.6,-3.7 1.9,-1.3 3.8,-2.5 5.8,-3.6 2,-1.1 4,-2.2 6,-3.2 2,-1 4.1,-2 6.2,-2.9 2,-0.9 4.1,-1.8 6.2,-2.6 2.1,-0.8 4.3,-1.6 6.4,-2.3 2.2,-0.7 4.4,-1.4 6.6,-1.9 2.2,-0.6 4.3,-1.2 6.6,-1.7 2.2,-0.4 4.3,-0.9 6.6,-1.2 2.2,-0.4 4.4,-0.8 6.7,-1 2.2,-0.4 4.4,-0.7 6.7,-0.9 2.2,-0.1 4.5,-0.1 6.8,0 0.8,0 1.7,0 2.6,0 2.3,-0.1 4.5,-0.1 6.8,0 0.7,0 1.4,0 2.1,0 2.3,0.3 4.6,0.6 6.9,0.9 2.2,0.3 4.4,0.6 6.6,0.9 2.3,0.5 4.5,1 6.7,1.5 2,0.4 4,0.8 6,1.3 0.3,0 0.6,0 0.9,0 0.7,0.2 1.4,0.6 2,0.9 3,0.9 6.1,1.8 9,2.9 2.1,0.9 4.2,1.7 6.2,2.6 2.1,0.9 4.2,1.8 6.3,2.8 2,1 4,2.1 5.9,3.2 2,1 4,2.1 6,3.3 1.9,1.2 3.8,2.4 5.7,3.7 1.8,1.3 3.7,2.6 5.5,4 1.8,1.4 3.5,2.8 5.2,4.3 1.8,1.4 3.4,2.9 5.1,4.4 1.7,1.6 3.2,3.2 4.8,4.8 1.6,1.6 3.1,3.2 4.6,4.9 1.5,1.7 3,3.4 4.4,5.2 1.4,1.8 2.7,3.6 4,5.5 1.4,1.8 2.6,3.7 3.9,5.6 1.2,1.9 2.3,3.8 3.5,5.8 1.1,2 2.1,4 3.1,6.1 1.1,2 2,4 2.9,6 0.9,2.1 1.8,4.2 2.6,6.3 0.8,2.1 1.6,4.2 2.3,6.4 0.7,2.1 1.3,4.3 1.9,6.4 0.7,2.2 1.2,4.4 1.7,6.6 0.5,2.3 0.9,4.5 1.3,6.7 0.4,2.3 0.7,4.5 1,6.7 0.4,2.3 0.7,4.6 0.9,6.8 0.1,2.3 0.1,4.5 0,6.7 0,0.9 0,1.8 0,2.7 0.1,2.3 0.1,4.5 0,6.8 0,0.7 0,1.4 -0.1,2.1 -0.2,2.3 -0.5,4.6 -0.9,6.9 -0.2,2.3 -0.5,4.5 -0.9,6.7 -0.4,2.3 -0.9,4.5 -1.4,6.7 -0.4,2 -0.8,4 -1.3,6 0,0.3 0,0.6 0,0.9 -0.3,0.7 -0.6,1.3 -0.9,2 -0.9,3 -1.9,5.9 -3,8.8 -0.7,2.2 -1.6,4.3 -2.5,6.4 -0.9,2.1 -1.8,4.1 -2.7,6.1 -1,2.1 -2.1,4.1 -3.2,6 -1.1,2 -2.2,4 -3.3,5.9 -1.2,1.9 -2.5,3.8 -3.7,5.6 -1.3,1.9 -2.7,3.7 -4,5.6 -1.4,1.7 -2.8,3.5 -4.3,5.2 -1.5,1.7 -3,3.5 -4.5,5.2 -1.6,1.6 -3.2,3.2 -4.8,4.8 -1.7,1.6 -3.3,3.1 -5,4.6 -1.7,1.5 -3.5,2.9 -5.2,4.3 -1.8,1.5 -3.7,2.8 -5.5,4.1 -1.9,1.3 -3.8,2.6 -5.7,3.8 -1.9,1.2 -3.8,2.4 -5.8,3.6 -2,1 -4,2.1 -6,3.1 -2,1.1 -4,2 -6.1,3 -2.1,0.9 -4.2,1.7 -6.3,2.5 -2.1,0.9 -4.2,1.7 -6.3,2.4 -2.2,0.7 -4.3,1.3 -6.5,1.9 -2.2,0.6 -4.4,1.2 -6.7,1.7 -2.1,0.5 -4.3,0.9 -6.6,1.3 -2.2,0.4 -4.5,0.7 -6.8,1 -2.2,0.3 -4.4,0.6 -6.6,0.9 -2.3,0 -4.6,0 -6.8,0 -0.9,0 -1.7,0 -2.6,0 z" /><path
         id="path36"
         style="fill:#ffffff;fill-opacity:1;fill-rule:nonzero;stroke:none"
         d="m 11978.8,12868.4 c -2.3,0 -4.6,0 -6.9,0 -0.6,0 -1.3,-0.1 -2,-0.1 -2.3,-0.2 -4.6,-0.5 -6.9,-0.9 -2.3,-0.3 -4.5,-0.6 -6.7,-0.9 -2.3,-0.4 -4.5,-0.9 -6.7,-1.5 -2,-0.4 -4,-0.7 -6,-1.2 -0.3,0 -0.6,0 -0.9,0 -0.7,-0.3 -1.3,-0.6 -2,-0.9 -3,-0.9 -5.9,-1.9 -8.9,-3 -2.1,-0.8 -4.1,-1.7 -6.2,-2.6 -2.1,-0.9 -4.2,-1.7 -6.3,-2.8 -2,-1 -4,-2 -5.9,-3.1 -2,-1.1 -4,-2.2 -5.9,-3.4 -1.9,-1.2 -3.8,-2.4 -5.6,-3.7 -1.9,-1.3 -3.7,-2.6 -5.6,-4 -1.7,-1.4 -3.5,-2.8 -5.2,-4.2 -1.7,-1.5 -3.4,-3 -5.1,-4.6 -1.6,-1.5 -3.2,-3.1 -4.8,-4.7 -1.6,-1.7 -3.1,-3.3 -4.6,-5 -1.5,-1.8 -2.9,-3.5 -4.3,-5.3 -1.4,-1.8 -2.8,-3.6 -4.1,-5.4 -1.3,-1.9 -2.6,-3.7 -3.8,-5.6 -1.2,-1.9 -2.4,-3.9 -3.5,-5.9 -1.2,-1.9 -2.2,-3.9 -3.2,-6 -1.1,-2 -2,-4 -2.9,-6.1 -0.9,-2.1 -1.8,-4.2 -2.7,-6.3 -0.8,-2.1 -1.5,-4.2 -2.2,-6.4 -0.7,-2.1 -1.4,-4.3 -2,-6.5 -0.6,-2.1 -1.1,-4.3 -1.6,-6.5 -0.5,-2.2 -0.9,-4.5 -1.3,-6.7 -0.4,-2.2 -0.7,-4.4 -1,-6.7 -0.4,-2.2 -0.6,-4.5 -0.9,-6.8 0,-2.2 0,-4.5 0,-6.7 0,-0.8 0,-1.7 0,-2.6 0,-2.2 0,-4.5 0,-6.7 0,-0.7 0,-1.5 0.1,-2.2 0.2,-2.2 0.5,-4.5 0.9,-6.7 0.2,-2.3 0.5,-4.6 0.9,-6.9 0.4,-2.2 0.9,-4.4 1.4,-6.7 0.4,-2 0.8,-4 1.3,-6 0,-0.2 0,-0.5 0,-0.8 0.3,-0.7 0.6,-1.4 0.9,-2 0.9,-3 1.9,-6 3,-8.9 0.8,-2.2 1.6,-4.3 2.5,-6.3 0.9,-2.1 1.8,-4.2 2.7,-6.2 1.1,-2 2.1,-4 3.2,-6 1.1,-2 2.2,-3.9 3.4,-5.9 1.2,-1.9 2.4,-3.8 3.7,-5.7 1.2,-1.8 2.5,-3.7 3.9,-5.5 1.3,-1.8 2.8,-3.5 4.2,-5.2 1.5,-1.8 3,-3.5 4.6,-5.1 1.5,-1.6 3.1,-3.2 4.7,-4.8 1.7,-1.6 3.3,-3.1 5,-4.6 1.8,-1.5 3.5,-3 5.3,-4.4 1.8,-1.4 3.6,-2.7 5.4,-4.1 1.9,-1.3 3.7,-2.5 5.6,-3.7 1.9,-1.3 3.8,-2.5 5.8,-3.6 2,-1.1 4,-2.2 6,-3.2 2,-1 4.1,-2 6.2,-2.9 2,-0.9 4.1,-1.8 6.2,-2.6 2.1,-0.8 4.3,-1.6 6.4,-2.3 2.2,-0.7 4.4,-1.4 6.6,-1.9 2.2,-0.6 4.3,-1.2 6.6,-1.7 2.2,-0.4 4.3,-0.9 6.6,-1.2 2.2,-0.4 4.4,-0.8 6.7,-1 2.2,-0.4 4.4,-0.7 6.7,-0.9 2.2,-0.1 4.5,-0.1 6.8,0 0.8,0 1.7,0 2.6,0 2.3,-0.1 4.5,-0.1 6.8,0 0.7,0 1.4,0 2.1,0 2.3,0.3 4.6,0.6 6.9,0.9 2.2,0.3 4.4,0.6 6.6,0.9 2.3,0.5 4.5,1 6.7,1.5 2,0.4 4,0.8 6,1.3 0.3,0 0.6,0 0.9,0 0.7,0.2 1.4,0.6 2,0.9 3,0.9 6.1,1.8 9,2.9 2.1,0.9 4.2,1.7 6.2,2.6 2.1,0.9 4.2,1.8 6.3,2.8 2,1 4,2.1 5.9,3.2 2,1 4,2.1 6,3.3 1.9,1.2 3.8,2.4 5.7,3.7 1.8,1.3 3.7,2.6 5.5,4 1.8,1.4 3.5,2.8 5.2,4.3 1.8,1.4 3.4,2.9 5.1,4.4 1.7,1.6 3.2,3.2 4.8,4.8 1.6,1.6 3.1,3.2 4.6,4.9 1.5,1.7 3,3.4 4.4,5.2 1.4,1.8 2.7,3.6 4,5.5 1.4,1.8 2.6,3.7 3.9,5.6 1.2,1.9 2.3,3.8 3.5,5.8 1.1,2 2.1,4 3.1,6.1 1.1,2 2,4 2.9,6 0.9,2.1 1.8,4.2 2.6,6.3 0.8,2.1 1.6,4.2 2.3,6.4 0.7,2.1 1.3,4.3 1.9,6.4 0.7,2.2 1.2,4.4 1.7,6.6 0.5,2.3 0.9,4.5 1.3,6.7 0.4,2.3 0.7,4.5 1,6.7 0.4,2.3 0.7,4.6 0.9,6.8 0.1,2.3 0.1,4.5 0,6.7 0,0.9 0,1.8 0,2.7 0.1,2.3 0.1,4.5 0,6.8 0,0.7 0,1.4 -0.1,2.1 -0.2,2.3 -0.5,4.6 -0.9,6.9 -0.2,2.3 -0.5,4.5 -0.9,6.7 -0.4,2.3 -0.9,4.5 -1.4,6.7 -0.4,2 -0.8,4 -1.3,6 0,0.3 0,0.6 0,0.9 -0.3,0.7 -0.6,1.3 -0.9,2 -0.9,3 -1.9,5.9 -3,8.8 -0.7,2.2 -1.6,4.3 -2.5,6.4 -0.9,2.1 -1.8,4.1 -2.7,6.1 -1,2.1 -2.1,4.1 -3.2,6 -1.1,2 -2.2,4 -3.3,5.9 -1.2,1.9 -2.5,3.8 -3.7,5.6 -1.3,1.9 -2.7,3.7 -4,5.6 -1.4,1.7 -2.8,3.5 -4.3,5.2 -1.5,1.7 -3,3.5 -4.5,5.2 -1.6,1.6 -3.2,3.2 -4.8,4.8 -1.7,1.6 -3.3,3.1 -5,4.6 -1.7,1.5 -3.5,2.9 -5.2,4.3 -1.8,1.5 -3.7,2.8 -5.5,4.1 -1.9,1.3 -3.8,2.6 -5.7,3.8 -1.9,1.2 -3.8,2.4 -5.8,3.6 -2,1 -4,2.1 -6,3.1 -2,1.1 -4,2 -6.1,3 -2.1,0.9 -4.2,1.7 -6.3,2.5 -2.1,0.9 -4.2,1.7 -6.3,2.4 -2.2,0.7 -4.3,1.3 -6.5,1.9 -2.2,0.6 -4.4,1.2 -6.7,1.7 -2.1,0.5 -4.3,0.9 -6.6,1.3 -2.2,0.4 -4.5,0.7 -6.8,1 -2.2,0.3 -4.4,0.6 -6.6,0.9 -2.3,0 -4.6,0 -6.8,0 -0.9,0 -1.7,0 -2.6,0 z" /><g
         transform="scale(1.01862)"
         id="g38"><path
           id="path40"
           style="fill:#cccccc;fill-opacity:1;fill-rule:nonzero;stroke:none"
           d="m 16300,5750.79 c 0,-431.95 -1400.6,-782.07 -3128.3,-782.07 -1727.8,0 -3128.4,350.12 -3128.4,782.07 0,207.43 329.6,406.35 916.3,553.03 586.7,146.68 1382.4,229.05 2212.1,229.05 829.7,0 1625.4,-82.37 2212,-229.05 586.7,-146.68 916.3,-345.6 916.3,-553.03 z" /></g><path
         id="path42"
         style="fill:#f58d44;fill-opacity:1;fill-rule:nonzero;stroke:none"
         d="m 12487.2,7942.62 c 0,-816.92 -272.4,-1978.21 -608.5,-1978.21 -336,0 -608.5,1161.29 -608.5,1978.21 0,816.91 359.7,980.11 608.5,980.11 248.8,0 608.5,-163.2 608.5,-980.11 z" /><path
         id="path44"
         style="fill:#1a1a1a;fill-opacity:1;fill-rule:nonzero;stroke:none"
         d="m 11878.7,9092.54 c -161.5,0 -371,-59.49 -527.1,-243.79 -156.1,-184.3 -251.2,-472.73 -251.2,-906.13 0,-427.35 69.3,-930.71 184.5,-1341.33 57.6,-205.31 125.6,-386.72 211.2,-529.84 85.7,-143.17 200.8,-276.84 382.6,-276.84 181.9,0 296.9,133.67 382.6,276.84 85.6,143.12 153.6,324.53 211.2,529.88 115.2,410.58 184.5,913.94 184.5,1341.29 0,433.36 -95.1,721.83 -251.1,906.13 -156.1,184.3 -365.7,243.79 -527.2,243.79 z m 0,-339.65 c 87.3,0 182,-22.11 268,-123.63 86,-101.53 170.7,-303.09 170.7,-686.64 0,-389.57 -66.9,-875.32 -171.9,-1249.57 -52.5,-187.11 -115.7,-347.07 -175.7,-447.19 -44.9,-75.08 -81.4,-100.35 -91.1,-108.28 -9.6,7.93 -46.2,33.2 -91.1,108.28 -59.9,100.12 -123.2,260.08 -175.7,447.19 -105,374.25 -171.9,860 -171.9,1249.57 0,383.55 84.8,585.11 170.7,686.64 86,101.52 180.7,123.63 268,123.63 z" /><path
         id="path46"
         style="fill:#f58d44;fill-opacity:1;fill-rule:nonzero;stroke:none"
         d="m 15448.3,8161.48 c -312.7,754.85 -707.5,767.97 -937.4,672.74 -229.9,-95.24 -499.8,-383.67 -187.1,-1138.52 79.6,-192.22 183.6,-398.75 299,-597.58 221.3,-381.09 545.4,-671.95 1045.6,-669.88 240.7,1.02 415.9,49.53 461.1,158.79 59.3,143.09 -114.4,368.05 -394.3,600.31 -64.4,331.92 -166.8,684.18 -286.9,974.14 z" /><g
         transform="scale(1.0031)"
         id="g48"><path
           id="path50"
           style="fill:#1a1a1a;fill-opacity:1;fill-rule:nonzero;stroke:none"
           d="m 14401.2,8963.31 c 148.8,61.65 364.5,86.8 578.6,-23.4 214.1,-110.24 411.8,-339.65 577.1,-738.88 118.2,-285.21 216.4,-620.76 283,-944.76 126.3,-108.72 233.2,-216.95 309.4,-327.69 85.4,-124.11 150.7,-272.4 86.8,-426.73 -48.8,-117.64 -155.3,-181.47 -260.8,-215.81 -105.5,-34.39 -223.5,-46.46 -354.7,-47 -564.6,-2.31 -951.6,342.44 -1189.4,752.07 -118.5,204.1 -225.3,415.82 -308.2,615.98 -165.3,399.19 -187.8,701.19 -114.4,930.51 73.5,229.33 243.8,364.07 392.6,425.71 z m 129.6,-312.86 c -80.4,-33.28 -159.2,-89.79 -199.6,-216.12 -40.5,-126.32 -41.6,-344.36 104.7,-697.64 75.8,-183.06 176.4,-383.14 288.1,-575.51 203.3,-350.21 462.5,-585.3 895.2,-583.5 108.8,0.65 198.1,13.04 251.2,30.33 32.7,10.67 45.4,19.66 50.4,23.52 -2.4,8.88 -8.3,43.92 -50.4,105.02 -56.2,81.63 -159.9,188.68 -292,298.26 l -46.6,38.67 -11.5,59.43 c -62.1,319.86 -162,662.82 -276.2,938.52 -146.3,353.33 -301.3,506.68 -419.3,567.38 -117.9,60.71 -213.6,44.94 -294,11.64 z" /></g><path
         id="path52"
         style="fill:#f58d44;fill-opacity:1;fill-rule:nonzero;stroke:none"
         d="m 9384.3,11548.2 c -707.46,-408.4 -1849.38,-753.1 -2017.39,-462.1 -168.04,291 701.45,1107.7 1408.91,1516.1 707.46,408.5 1028.63,178.5 1153.05,-36.9 124.43,-215.5 162.93,-608.6 -544.57,-1017.1 z" /><path
         id="path54"
         style="fill:#1a1a1a;fill-opacity:1;fill-rule:nonzero;stroke:none"
         d="m 10075.9,12650.2 c -80.74,139.9 -237.03,291.6 -474.69,334.6 -237.62,43 -535,-18.9 -910.31,-235.5 -370.08,-213.7 -771.33,-525.4 -1069.34,-830.5 -149.02,-152.5 -272.15,-302.1 -353.28,-447.9 -81.13,-145.7 -139.33,-312.2 -48.44,-469.7 90.9,-157.4 264.18,-190.3 431.02,-192.9 166.8,-2.6 357.85,29.3 564.49,82.1 413.2,105.5 883.79,297.1 1253.87,510.8 375.31,216.7 577.58,443.2 659.18,670.6 81.6,227.3 28.3,438.5 -52.5,578.4 z m -294.1,-169.8 c 43.63,-75.6 71.83,-168.7 26.91,-293.9 -44.96,-125.2 -177.15,-299.4 -509.3,-491.2 -337.38,-194.8 -791.52,-379.7 -1168.12,-475.9 -188.28,-48.1 -358.44,-73.3 -475.12,-71.5 -87.46,1.4 -127.62,20.4 -139.29,24.8 2.03,12.3 5.62,56.6 48.16,133.1 56.76,101.9 163.67,236.6 299.49,375.7 271.6,278 658.79,578.9 996.21,773.6 332.15,191.8 549.1,219.2 680,195.5 130.9,-23.7 197.42,-94.7 241.06,-170.2 z" /><g
         transform="scale(1.16005)"
         id="g56"><path
           id="path58"
           style="fill:#f58d44;fill-opacity:1;fill-rule:nonzero;stroke:none"
           d="m 15864.4,10676.1 c 269.5,-650.6 435.6,-1665.34 168,-1776.19 -267.7,-110.88 -867.7,724.1 -1137.2,1374.69 -269.5,650.6 -36.9,899.3 161.3,981.3 198.2,82.1 538.4,70.8 807.9,-579.8 z" /></g><g
         transform="scale(1.16167)"
         id="g60"><path
           id="path62"
           style="fill:#1a1a1a;fill-opacity:1;fill-rule:nonzero;stroke:none"
           d="m 14979.5,11375.3 c -128.4,-53.2 -275.5,-169.5 -338.9,-367.6 -63.4,-198 -44,-458.7 98.7,-803.3 140.8,-339.92 361.8,-717.41 588.7,-1006.02 113.4,-144.29 227.2,-266.19 342.5,-351.83 115.3,-85.62 250.8,-154.01 395.5,-94.12 144.6,59.89 192,204.11 213,346.18 21,142.07 15.3,308.72 -6.6,491.01 -43.6,364.51 -154.3,787.68 -295.1,1127.48 -142.7,344.7 -313.4,542.8 -498.2,638 -184.9,95.1 -371.1,73.4 -499.6,20.2 z m 111.9,-270.1 c 69.4,28.7 152,42.3 253.9,-10.1 101.8,-52.4 235.6,-184.8 361.9,-489.8 128.4,-309.9 235.2,-718.22 274.9,-1050.45 19.9,-166.11 22.4,-314.17 7.7,-413.53 -11,-74.52 -31.8,-106.63 -36.8,-116.11 -10.3,3.09 -47.7,11.15 -108.2,56.08 -80.6,59.89 -183.6,166.29 -287,297.8 -206.8,263.06 -420,627.31 -548.3,937.11 -126.4,305.1 -125.4,493.3 -90.5,602.4 35,109 103,157.8 172.4,186.6 z" /></g><g
         transform="scale(1.27833)"
         id="g64"><path
           id="path66"
           style="fill:#1a1a1a;fill-opacity:1;fill-rule:nonzero;stroke:none"
           d="m 9613.89,16293 c -234.13,7 -443.67,-167.6 -470.19,-405.4 l -1.32,-11.8 v -6.9 c -57.44,-692 -42.59,-1390.8 48.5,-2082.9 192.21,-1460 711.9,-2824.9 1489.82,-4010.8 l 62.9,-95.98 h 1121.8 l -238.2,335.58 c -804,1132.9 -1339.3,2461.8 -1527.4,3890.9 -82.2,623.9 -96,1253.9 -40.7,1875.8 l -1.4,-11.7 c 36.6,251.7 -145.79,486.4 -396.84,519.4 -15.56,2.1 -31.17,3.3 -46.85,3.8 z m -12.68,-425 c 1.22,0 2.63,-0.1 4.15,-0.3 23.29,-3.1 34.04,-20 31.6,-36.8 l -0.85,-5.8 -0.52,-5.9 c -58.12,-653.5 -43.45,-1314.6 42.68,-1969 179.14,-1360.6 661.03,-2633.4 1378.83,-3745.8 h -80.2 c -709.5,1111.1 -1185.81,2380 -1364.48,3737.1 -87.39,663.8 -101.6,1334.7 -45.93,1999.4 2.18,16.7 15.34,27.7 34.72,27.1 z" /></g><g
         transform="scale(1.30384)"
         id="g68"><path
           id="path70"
           style="fill:#1a1a1a;fill-opacity:1;fill-rule:nonzero;stroke:none"
           d="m 12550.3,16299.9 c -116.4,0 -234.5,-46.5 -321,-136.5 l -2,-2 -1.9,-2.1 C 11764.2,15652.7 11356,15096.9 11011.7,14500.5 10151.9,13011.3 9734.26,11349.9 9751.76,9696.06 l 2.15,-206.21 h 898.89 l -2.3,210.74 c -16.8,1498.91 361.6,3003.01 1139.6,4350.51 308.5,534.3 673.7,1032.7 1087.9,1483.5 l -8.1,-8.3 c 178.7,173.9 176.9,465.2 1.4,640.8 v 0 c -87.7,87.7 -204.8,132.9 -320.7,132.8 l 0.3,-416.8 c 9,0 17.5,-2.6 25.6,-10.8 16.3,-16.2 14.5,-35.9 2.7,-47.4 l -4.2,-4 -3.9,-4.3 c -435.2,-473.6 -818.4,-996.6 -1142,-1557.1 -779.5,-1350 -1175.7,-2850.7 -1194.4,-4352.82 h -64.9 c 18.6,1512.32 416.7,3023.72 1202.9,4385.32 328.2,568.5 717.5,1098.8 1157.5,1582.6 6.2,6.3 12.1,8.5 20.4,8.5 v 416.8 c 0,0 -0.1,0 -0.1,0 -0.1,0 -0.2,0 -0.2,0 z" /></g><g
         transform="scale(1.37564)"
         id="g72"><path
           id="path74"
           style="fill:#1a1a1a;fill-opacity:1;fill-rule:nonzero;stroke:none"
           d="m 10587.2,16296.1 c -152.7,3.9 -304.4,-75.6 -383.2,-218.5 l -1.3,-2.3 -1.2,-2.4 C 9903.49,15496.1 9666.13,14887 9497.21,14256.5 9035.99,12535.4 9109.03,10755.6 9650.52,9129.65 l 45,-135.11 h 904.68 l -93.1,263.37 c -533.95,1509.89 -617.18,3172.89 -187,4778.19 151.3,564.8 363.4,1110.7 632.1,1625 l -5.3,-9.6 c 120.9,203.1 47.7,469.4 -156,587 -63.7,36.8 -134.2,55.8 -203.7,57.6 z m -10.3,-395 h 0.1 c 5.3,-0.1 10.4,-1.3 16.3,-4.7 18.9,-10.9 22.1,-29.3 14.1,-42.8 l -2.8,-4.7 -2.6,-4.9 c -282.2,-540.4 -504.8,-1113.2 -663.55,-1705.7 -426.25,-1590.7 -371.31,-3236.1 108.45,-4748.66 h -63.87 c -477.51,1517.36 -532.37,3166.76 -104.18,4764.66 161.05,601 387.35,1182.1 671.55,1733 5.7,9.8 14.7,14.1 26.5,13.8 z" /></g><g
         transform="scale(1.11549)"
         id="g76"><path
           id="path78"
           style="fill:#1a1a1a;fill-opacity:1;fill-rule:nonzero;stroke:none"
           d="m 12027.8,15013.5 c -2356.54,0 -4272.1,-1915.6 -4272.1,-4272.1 0.03,-1225.97 526.99,-2393.16 1446.49,-3204.08 13.8,-12.18 27.74,-24.23 41.71,-36.28 l 0.98,-0.98 6.27,-5.39 C 10175.5,6693.59 11059.5,6423.26 11918.5,5991.55 l 109.4,-55.01 109.4,55.01 c 858.9,431.67 1742.8,702.01 2667.1,1502.87 16.5,14.11 32.9,28.37 49.2,42.76 919.5,810.89 1446.4,1978.15 1446.4,3204.12 0,2308.7 -1839,4193 -4129.7,4268.5 l -2.2,3.8 z m -3.2,-487.4 h 3.3 c 2093.2,0 3784.9,-1691.6 3784.9,-3784.9 0,-1086.36 -466.7,-2120.03 -1281.5,-2838.64 -14.6,-12.92 -29.3,-25.74 -44.2,-38.41 l -0.7,-0.53 -0.6,-0.52 c -813.8,-705.38 -1598.6,-964.61 -2457.9,-1384.66 -858.6,419.69 -1642.7,678.93 -2455.77,1382.91 l -3.65,3.11 c -14.77,12.65 -29.41,25.39 -43.98,38.24 h -0.07 c -814.84,718.57 -1281.49,1752.28 -1281.49,2838.7 0,2092.1 1689.94,3783 3781.66,3784.7 z" /></g><g
         transform="scale(1.26141)"
         id="g80"><path
           id="path82"
           style="fill:#b3d464;fill-opacity:1;fill-rule:nonzero;stroke:none"
           d="m 9480.4,16076.7 c -58.22,-690.5 -43.51,-1387.6 47.35,-2077.7 190.48,-1447 705.45,-2799.4 1476.35,-3974.6 h 603.4 c -834.8,1176.2 -1390.5,2556 -1585.8,4039.6 -85.27,647.7 -99.79,1302 -42.32,1948.3 19.76,136 -78.07,263.5 -217.05,281.8 -8.7,1.1 -17.34,1.8 -25.92,2.1 -128.58,3.8 -241.57,-90.3 -256.01,-219.5 z" /></g><g
         transform="scale(1.05577)"
         id="g84"><path
           id="path86"
           style="fill:#e0edb4;fill-opacity:1;fill-rule:nonzero;stroke:none"
           d="m 12052.1,16300 c -196.8,-26.3 -391.8,-64.4 -584,-114.2 275.7,-1525.4 854.8,-2952 1679.3,-4208.8 h 720.9 c -902.2,1271.2 -1531.6,2741.8 -1816.2,4323 z" /></g><g
         transform="scale(1.26564)"
         id="g88"><path
           id="path90"
           style="fill:#1a1a1a;fill-opacity:1;fill-rule:nonzero;stroke:none"
           d="m 9705.44,16295.4 c -155.21,4.6 -292.58,-109.8 -310.05,-266.4 l -0.15,-1.5 -0.19,-1.5 v -1.6 c -58.03,-690.9 -43.27,-1388.5 47.65,-2079.2 h -0.03 c 190.93,-1450.3 707.03,-2805.8 1479.73,-3983.71 l 15.9,-24.23 h 734.3 l -60.2,84.74 c -826.9,1165.2 -1377.5,2532.2 -1571,4002 -84.5,641.7 -98.83,1289.9 -41.88,1930 l -0.37,-3 c 24.05,165.3 -95.16,319.9 -262.47,341.9 -10.4,1.3 -20.8,2.2 -31.2,2.5 z m -3.2,-107.3 c 6.73,-0.2 13.58,-0.8 20.46,-1.7 109.78,-14.4 185.61,-114 170.21,-219.9 l -0.21,-1.5 -0.13,-1.5 c -57.65,-648.1 -43.11,-1304.1 42.38,-1953.5 191.15,-1452.5 729.15,-2804.5 1533.55,-3965.4 h -471.3 c -755.3,1159.1 -1260.58,2490.3 -1448.08,3914.6 -90,683.5 -104.57,1374.1 -46.98,2058.1 11.39,100.8 99.11,173.8 200.1,170.8 z" /></g><g
         transform="scale(1.28717)"
         id="g92"><path
           id="path94"
           style="fill:#b3d464;fill-opacity:1;fill-rule:nonzero;stroke:none"
           d="m 12713.1,16299.9 c -63.2,0 -126.2,-24.6 -173.2,-73.6 -457.2,-502.1 -861.7,-1052.9 -1202.8,-1643.6 -851.7,-1475.3 -1265.3,-3120.6 -1248,-4758.9 h 488.2 c -17.4,1555.4 375.3,3116.6 1182.6,4514.8 320.1,554.5 699.2,1071.8 1129.4,1539.9 96.5,94 96.5,251.5 -0.6,348.6 -48.6,48.6 -112.3,72.9 -175.6,72.8 z" /></g><g
         transform="scale(1.05749)"
         id="g96"><path
           id="path98"
           style="fill:#e0edb4;fill-opacity:1;fill-rule:nonzero;stroke:none"
           d="m 13094.7,16300 c -559.4,-1394.5 -829.9,-2870.8 -814.3,-4342.6 h 594.1 c -16.1,1444.5 258.7,2893 826.2,4254.4 -200,41.9 -402.4,71.4 -606,88.2 z" /></g><g
         transform="scale(1.29134)"
         id="g100"><path
           id="path102"
           style="fill:#1a1a1a;fill-opacity:1;fill-rule:nonzero;stroke:none"
           d="m 12672,16299.9 c -76.7,0 -153.5,-30.2 -210.6,-89.5 l -0.5,-0.5 -0.5,-0.5 c -458.2,-503.2 -863.6,-1055.3 -1205.5,-1647.5 -853.8,-1478.8 -1268.35,-3128.1 -1251,-4770.33 l 0.6,-52.09 h 591.8 l -0.6,53.2 c -17.2,1541.12 371.9,3087.92 1171.8,4473.32 317.2,549.4 692.7,1061.9 1118.9,1525.7 l -2,-2.1 c 117.2,114.1 116.8,305.4 -0.1,422.3 -58.5,58.5 -135.6,88.1 -212.2,88 0,0 0,0 0,0 0,0 -0.1,0 -0.1,0 z m 0.1,-35.1 0.1,-70.1 c 49.6,0 99.3,-18.8 137.7,-57.2 76.7,-76.7 76.3,-199.4 1.1,-272.6 l -1,-1 -1,-1.1 c -431.5,-469.5 -811.6,-988.3 -1132.6,-1544.2 -800.3,-1386.1 -1193.6,-2931.9 -1185.6,-4473.92 h -381.3 c -8,1606.52 401.3,3218.02 1236.6,4664.62 337.8,585.1 738.5,1130.8 1191.4,1628.3 36.7,38.1 85.2,57 134.6,57 v 0 z" /></g><g
         transform="scale(1.35882)"
         id="g104"><path
           id="path106"
           style="fill:#b3d464;fill-opacity:1;fill-rule:nonzero;stroke:none"
           d="m 10713,16297.8 c -83.4,2.2 -164.8,-40.3 -207.6,-117.8 -295.2,-571.5 -530.23,-1174.6 -697.48,-1798.8 -456.62,-1704 -384.27,-3465.6 151.79,-5075.38 h 488.89 c -553.78,1565.98 -640.05,3290.98 -194,4955.68 157,585.8 377,1152.1 655.9,1686 65.3,109.6 26.6,253.7 -86.1,318.8 -35.2,20.3 -73.5,30.5 -111.4,31.5 z" /></g><g
         transform="scale(1.0586)"
         id="g108"><path
           id="path110"
           style="fill:#e0edb4;fill-opacity:1;fill-rule:nonzero;stroke:none"
           d="m 12674.2,16300 c -148.9,0 -297.8,-6.8 -446.2,-20.2 -98.5,-1478.5 95.2,-2950.5 556.3,-4334.8 h 627.4 c -489.6,1384.6 -694.4,2866.1 -587.3,4352.5 -50,1.5 -100,2.3 -150,2.3 z" /></g><g
         transform="scale(1.36302)"
         id="g112"><path
           id="path114"
           style="fill:#1a1a1a;fill-opacity:1;fill-rule:nonzero;stroke:none"
           d="m 10681.3,16297.4 c -100.9,2.6 -200.1,-49.2 -251.9,-143.2 l -0.3,-0.6 -0.4,-0.6 c -295.9,-572.9 -531.53,-1177.5 -699.19,-1803.2 -457.76,-1708.4 -385.26,-3474.6 152.18,-5088.45 l 11.34,-34.08 h 593.77 l -23.5,66.49 c -548.74,1551.84 -634.2,3261.14 -192.2,4910.94 155.6,580.5 373.6,1141.6 649.9,1670.5 l -1.4,-2.4 c 79.4,133.2 32.1,308.1 -103.6,386.5 -42.4,24.5 -88.9,36.9 -134.7,38.1 z m -2.6,-99.7 c 29.6,-0.7 59.6,-8.7 87.4,-24.8 89,-51.4 118.7,-163.8 67.9,-249.1 l -0.7,-1.2 -0.7,-1.3 c -279.7,-535.5 -500.3,-1103.3 -657.8,-1690.8 -441.05,-1646.1 -362.18,-3350.7 172.4,-4903.53 h -381.63 c -521.16,1586.53 -589.22,3319.73 -139.77,4996.93 165.68,618.4 398.5,1216 691,1782.3 33.4,60.4 96.6,93.2 161.9,91.5 z" /></g><g
         transform="scale(1.09881)"
         id="g116"><path
           id="path118"
           style="fill:#eb632f;fill-opacity:1;fill-rule:nonzero;stroke:none"
           d="m 16300,10904.4 c 0,-1084.57 -430.9,-2124.8 -1197.8,-2891.75 -767,-766.94 -1807.2,-1197.85 -2891.8,-1197.85 -1084.7,0 -2124.8,430.91 -2891.79,1197.85 -766.99,766.95 -1197.85,1807.18 -1197.85,2891.75 0,1084.7 430.86,2124.9 1197.85,2891.8 766.99,767 1807.09,1197.9 2891.79,1197.9 1084.6,0 2124.8,-430.9 2891.8,-1197.9 766.9,-766.9 1197.8,-1807.1 1197.8,-2891.8 z" /></g><g
         transform="scale(1.02637)"
         id="g120"><path
           id="path122"
           style="fill:#f58d44;fill-opacity:1;fill-rule:nonzero;stroke:none"
           d="m 12318.9,15869.6 c -220.7,0 -441,-17.1 -658.7,-51.1 -865.1,-294.7 -1616.3,-852.9 -2148.28,-1596.1 -531.94,-743.2 -818,-1634.3 -818,-2548.3 0,-516.9 91.58,-1029.7 270.41,-1514.8 731.49,-1067.13 1996.17,-1712.95 3354.57,-1712.95 1055.9,0 2068.5,391.05 2815.1,1087.11 746.6,696.04 1166,1640.14 1166,2624.54 0,984.4 -419.4,1928.5 -1166,2624.5 -746.6,696.1 -1759.2,1087.1 -2815.1,1087.1 z" /></g><path
         id="path124"
         style="fill:#ffba63;fill-opacity:1;fill-rule:nonzero;stroke:none"
         d="m 11030.2,15724.5 c -35.1,-0.1 -70.3,-1.1 -105.4,-3.1 -805.6,-537 -1416.25,-1319.6 -1741.13,-2231.6 169.22,-887.6 945.33,-1529.7 1848.83,-1529.7 499.2,0 978,198.3 1330.9,551.3 353,353 551.3,831.7 551.3,1330.9 0,1039.5 -842.7,1882.1 -1882.2,1882.2 -0.7,0 -1.5,0 -2.3,0 z" /><g
         transform="scale(1.00547)"
         id="g126"><path
           id="path128"
           style="fill:#eb632f;fill-opacity:1;fill-rule:nonzero;stroke:none"
           d="m 10387.8,8564.76 c 1002.6,-888.34 1961.1,-1175.86 2956.1,-1675.95 994.9,500.09 1953.5,787.61 2956.1,1675.95 l -2956.1,-285.71 z" /></g><g
         transform="scale(1.10299)"
         id="g130"><path
           id="path132"
           style="fill:#1a1a1a;fill-opacity:1;fill-rule:nonzero;stroke:none"
           d="m 12164.2,14998.9 c -2283.39,0 -4135.78,-1852.3 -4135.78,-4135.7 0.03,-1186.91 510.05,-2316.73 1400.25,-3101.81 15.26,-13.46 30.63,-26.81 46.08,-40.02 l 0.7,-0.71 1.63,-1.38 c 906.22,-785.33 1774.02,-1049.6 2659.52,-1494.67 l 27.7,-13.91 27.6,13.91 c 885.5,445.07 1753.4,709.38 2659.6,1494.64 l 0.3,0.28 c 16.1,13.78 32.1,27.66 48,41.69 890.2,785.08 1400.2,1914.93 1400.2,3101.88 0,2270.5 -1831.7,4114 -4097.4,4134.7 l -0.6,1.2 z m -3.2,-123.3 h 3.3 c 2216.8,0 4012.5,-1795.7 4012.5,-4012.5 0,-1151.72 -494.8,-2247.78 -1358.5,-3009.53 -15.5,-13.7 -31.2,-27.27 -46.9,-40.72 l -0.3,-0.43 c -878,-760.93 -1720.3,-1022.75 -2606.9,-1464.95 -886.1,441.95 -1728,703.81 -2605.46,1463.89 l -0.21,0.21 -1.73,1.46 c -15.62,13.38 -31.17,26.91 -46.61,40.54 h -0.03 c -863.74,761.72 -1358.57,1857.81 -1358.57,3009.53 0,2215.7 1794.03,4010.6 4009.31,4012.3 z" /></g><path
         id="path134"
         style="fill:#ffba63;fill-opacity:1;fill-rule:nonzero;stroke:none"
         d="m 13417,14137 c -27,0.1 -53,-10.7 -72.1,-29.8 -19.1,-19.1 -29.8,-45 -29.8,-72 0,-27.1 10.7,-53 29.8,-72.1 19.1,-19.2 45.1,-29.9 72.1,-29.9 610.3,0 1219.9,-39.9 1825,-119.6 55.8,-7.3 107,32 114.4,87.7 3.5,26.8 -3.7,53.9 -20.2,75.4 -16.5,21.4 -40.8,35.4 -67.6,39 -613.9,80.8 -1232.4,121.3 -1851.6,121.3 z" /><g
         transform="scale(1.0775)"
         id="g136"><path
           id="path138"
           style="fill:#eb632f;fill-opacity:1;fill-rule:nonzero;stroke:none"
           d="m 13997.6,11781.7 c -47.8,0.5 -88.5,-34.9 -94.8,-82.3 -6.8,-51.8 29.7,-99.3 81.5,-106.1 740.8,-97.5 1470.6,-265.6 2179.6,-501.9 23.8,-7.9 49.8,-6 72.2,5.2 22.4,11.2 39.5,30.9 47.4,54.7 16.5,49.5 -10.3,103.1 -59.8,119.6 -720.4,240 -1461.9,410.8 -2214.7,510 -3.8,0.4 -7.6,0.7 -11.4,0.8 z" /></g><path
         id="path140"
         style="fill:#ffba63;fill-opacity:1;fill-rule:nonzero;stroke:none"
         d="m 13417,11321.3 c -495.8,0 -991.6,-32.5 -1484.1,-97.4 -26.8,-3.5 -51.1,-17.5 -67.6,-38.9 -16.5,-21.5 -23.7,-48.6 -20.2,-75.4 7.4,-55.8 58.6,-95 114.3,-87.7 967.5,127.4 1947.6,127.4 2915.1,0 55.8,-7.3 107,31.9 114.3,87.7 3.6,26.8 -3.7,53.9 -20.1,75.4 -16.5,21.4 -40.8,35.4 -67.6,38.9 -492.6,64.9 -988.4,97.4 -1484.1,97.4 z" /><path
         id="path142"
         style="fill:#eb632f;fill-opacity:1;fill-rule:nonzero;stroke:none"
         d="m 13417,9632.85 c -56.3,0 -101.9,-45.58 -101.9,-101.87 0,-27.03 10.7,-52.93 29.8,-72.07 19.1,-19.11 45.1,-29.85 72.1,-29.85 828.1,0 1652.7,-108.55 2452.6,-322.81 54.3,-14.57 110.2,17.7 124.8,72.03 7,26.13 3.3,53.95 -10.2,77.34 -13.5,23.4 -35.8,40.51 -61.9,47.5 -817.1,218.91 -1659.4,329.73 -2505.3,329.73 z" /><g
         transform="scale(1.01572)"
         id="g144"><path
           id="path146"
           style="fill:#eb632f;fill-opacity:1;fill-rule:nonzero;stroke:none"
           d="m 13209.4,14927 c -26.6,0 -52.2,-10.5 -71,-29.3 -18.8,-18.8 -29.3,-44.4 -29.3,-71 0,-26.6 10.5,-52.1 29.3,-70.9 18.8,-18.9 44.4,-29.4 71,-29.4 994.6,0 1986.7,-100.4 2961.2,-299.8 54.2,-11 107.2,24 118.3,78.2 11.1,54.3 -23.9,107.3 -78.2,118.4 -987.6,202 -1993.2,303.8 -3001.3,303.8 z" /></g><path
         id="path148"
         style="fill:#ffba63;fill-opacity:1;fill-rule:nonzero;stroke:none"
         d="m 12998.2,12562.7 c 0,-245.4 -198.9,-444.3 -444.3,-444.3 -245.4,0 -444.3,198.9 -444.3,444.3 0,245.4 198.9,444.3 444.3,444.3 245.4,0 444.3,-198.9 444.3,-444.3 z" /><path
         id="path150"
         style="fill:#ffba63;fill-opacity:1;fill-rule:nonzero;stroke:none"
         d="m 12553.9,13075 c -282.1,0 -512.3,-230.2 -512.3,-512.3 0,-282.1 230.2,-512.2 512.3,-512.2 282.1,0 512.2,230.1 512.2,512.2 0,282.1 -230.1,512.3 -512.2,512.3 z m 0,-135.9 c 208.6,0 376.3,-167.7 376.3,-376.4 0,-208.6 -167.7,-376.3 -376.3,-376.3 -208.7,0 -376.4,167.7 -376.4,376.3 0,208.7 167.7,376.4 376.4,376.4 z" /><path
         id="path152"
         style="fill:#ffba63;fill-opacity:1;fill-rule:nonzero;stroke:none"
         d="m 10776.7,10563.4 c 0,-175.3 -142.1,-317.3 -317.4,-317.3 -175.2,0 -317.3,142 -317.3,317.3 0,175.3 142.1,317.3 317.3,317.3 175.3,0 317.4,-142 317.4,-317.3 z" /><path
         id="path154"
         style="fill:#ffba63;fill-opacity:1;fill-rule:nonzero;stroke:none"
         d="m 10459.3,10948.7 c -212,0 -385.2,-173.3 -385.2,-385.3 0,-212 173.2,-385.3 385.2,-385.3 212,0 385.3,173.3 385.3,385.3 0,212 -173.3,385.3 -385.3,385.3 z m 0,-135.9 c 138.6,0 249.5,-110.9 249.5,-249.4 0,-138.6 -110.9,-249.4 -249.5,-249.4 -138.5,0 -249.4,110.8 -249.4,249.4 0,138.5 110.9,249.4 249.4,249.4 z" /><path
         id="path156"
         style="fill:#1a1a1a;fill-opacity:1;fill-rule:nonzero;stroke:none"
         d="m 14401.6,11891.7 c -255,-5.1 -587.2,-96.3 -876.6,-423.6 l 101.8,-90 c 263.9,298.5 551.3,373.2 777.5,377.8 226.2,4.4 384.1,-63.2 384.1,-63.2 l 53.5,124.9 c 0,0 -185.1,79.2 -440.3,74.1 z" /><path
         id="path158"
         style="fill:#1a1a1a;fill-opacity:1;fill-rule:nonzero;stroke:none"
         d="m 11253.9,14027.4 c 387.8,0 700,-312.2 700,-699.9 v -350.7 c 0,-387.8 -312.2,-700 -700,-700 -387.7,0 -699.9,312.2 -699.9,700 v 350.7 c 0,387.7 312.2,699.9 699.9,699.9 z" /><path
         id="path160"
         style="fill:#ffffff;fill-opacity:1;fill-rule:nonzero;stroke:none"
         d="m 11661.3,13525.6 c 0,-124.8 -101.1,-226 -225.9,-226 -124.8,0 -225.9,101.2 -225.9,226 0,124.8 101.1,225.9 225.9,225.9 124.8,0 225.9,-101.1 225.9,-225.9 z" /><path
         id="path162"
         style="fill:#1a1a1a;fill-opacity:1;fill-rule:nonzero;stroke:none"
         d="m 14141.9,12276.8 c -387.7,0 -699.8,312.2 -699.8,700 v 578.2 h 1399.7 v -578.2 c 0,-387.8 -312.1,-700 -699.9,-700 z" /><path
         id="path164"
         style="fill:#ffffff;fill-opacity:1;fill-rule:nonzero;stroke:none"
         d="m 14657.2,13161 c 0,-124.8 -101.1,-225.9 -225.9,-225.9 -124.8,0 -225.9,101.1 -225.9,225.9 0,124.8 101.1,225.9 225.9,225.9 124.8,0 225.9,-101.1 225.9,-225.9 z" /><g
         transform="scale(1.17917)"
         id="g166"><path
           id="path168"
           style="fill:#1a1a1a;fill-opacity:1;fill-rule:nonzero;stroke:none"
           d="m 10503.7,16300 c -385.9,0 -661.62,-325.2 -700.65,-676.6 l -223.57,-2013.7 h 3597.62 l -223.6,2013.7 c -39,351.4 -314.7,676.6 -700.6,676.6 z m 0,-460.9 h 1749.2 c 136.6,0 223.9,-98.7 242.5,-266.6 l 166.8,-1501.9 h -2567.8 l 166.8,1501.9 c 18.6,167.9 105.9,266.6 242.5,266.6 z" /></g><g
         transform="scale(1.03356)"
         id="g170"><path
           id="path172"
           style="fill:#1a1a1a;fill-opacity:1;fill-rule:nonzero;stroke:none"
           d="m 10279.3,16300 c -273,0 -500.98,-228 -500.98,-501 0,-273 227.98,-501 500.98,-501 h 5404 c 273,0 501,228 501,501 0,273 -228,501 -501,501 z" /></g><g
         transform="scale(1.1625)"
         id="g174"><path
           id="path176"
           style="fill:#ffd595;fill-opacity:1;fill-rule:nonzero;stroke:none"
           d="m 10654.3,16300 h 1774.3 c 265,0 449.1,-214.9 478.4,-478.4 l 197.9,-1783 H 9978.02 l 197.98,1783 c 29.2,263.5 213.4,478.4 478.3,478.4 z" /></g><g
         transform="scale(1.1625)"
         id="g178"><path
           id="path180"
           style="fill:#fff5c9;fill-opacity:1;fill-rule:nonzero;stroke:none"
           d="m 10654.3,16300 c -265,0 -449.1,-215 -478.3,-478.4 l -198,-1783 h 550.8 l 197.9,1783 c 29.3,263.4 213.4,478.4 478.4,478.4 z" /></g><g
         transform="scale(1.1625)"
         id="g182"><path
           id="path184"
           style="fill:#ffb16f;fill-opacity:1;fill-rule:nonzero;stroke:none"
           d="m 11541.4,16300 c 265.1,0 449.2,-215 478.4,-478.4 l 197.9,-1783 h 887.2 l -198,1783 c -29.2,263.4 -213.3,478.4 -478.3,478.4 z" /></g><g
         transform="scale(1.06481)"
         id="g186"><path
           id="path188"
           style="fill:#808080;fill-opacity:1;fill-rule:nonzero;stroke:none"
           d="m 11001.6,16300 h 3197.6 l 81.4,-733.5 h -3360.5 z" /></g><g
         transform="scale(1.0648)"
         id="g190"><path
           id="path192"
           style="fill:#b4b4b4;fill-opacity:1;fill-rule:nonzero;stroke:none"
           d="m 11001.6,16300 -81.4,-733.4 h 601.3 l 81.4,733.4 z" /></g><g
         transform="scale(1.0648)"
         id="g194"><path
           id="path196"
           style="fill:#616161;fill-opacity:1;fill-rule:nonzero;stroke:none"
           d="m 13230.7,16300 81.5,-733.4 h 968.5 l -81.5,733.4 z" /></g><g
         transform="scale(1.16667)"
         id="g198"><path
           id="path200"
           style="fill:#1a1a1a;fill-opacity:1;fill-rule:nonzero;stroke:none"
           d="m 10616.3,16300 c -295.6,0 -502.8,-242.8 -534.5,-528.4 l -204.48,-1841.3 h 3245.78 l -204.4,1841.3 c -31.7,285.6 -239,528.4 -534.5,528.4 z m 0,-116.5 h 1767.9 c 232.6,0 392.2,-185.5 418.8,-424.8 l 190,-1711.9 h -2985.6 l 190.1,1711.9 c 26.6,239.3 186.2,424.8 418.8,424.8 z" /></g><g
         transform="scale(1.01689)"
         id="g202"><path
           id="path204"
           style="fill:#ffd595;fill-opacity:1;fill-rule:nonzero;stroke:none"
           d="m 10447.8,16300 h 5492.6 c 134,0 241.9,-107.9 241.9,-242 0,-134 -107.9,-241.9 -241.9,-241.9 h -5492.6 c -134,0 -241.9,107.9 -241.9,241.9 0,134.1 107.9,242 241.9,242 z" /></g><g
         transform="scale(1.02106)"
         id="g206"><path
           id="path208"
           style="fill:#1a1a1a;fill-opacity:1;fill-rule:nonzero;stroke:none"
           d="m 10405.2,16300 c -169.2,0 -307.5,-138.3 -307.5,-307.5 0,-169.2 138.3,-307.5 307.5,-307.5 h 5470.1 c 169.2,0 307.5,138.3 307.5,307.5 0,169.2 -138.3,307.5 -307.5,307.5 z m 0,-133.1 h 5470.1 c 97.8,0 174.5,-76.6 174.5,-174.4 0,-97.8 -76.7,-174.5 -174.5,-174.5 h -5470.1 c -97.8,0 -174.5,76.7 -174.5,174.5 0,97.8 76.7,174.4 174.5,174.4 z" /></g><g
         transform="scale(1.06897)"
         id="g210"><path
           id="path212"
           style="fill:#1a1a1a;fill-opacity:1;fill-rule:nonzero;stroke:none"
           d="m 10958.7,16300 h 3185.1 v -127.1 h -3185.1" /></g><path
         id="path214"
         style="fill:#1a1a1a;fill-opacity:1;fill-rule:nonzero;stroke:none"
         d="m 4810.78,13752.3 135.86,-235.3 1176.41,-2037.6 933.47,539 -1312.26,2272.9 z" /><g
         transform="scale(1.05749)"
         id="g216"><path
           id="path218"
           style="fill:#1a1a1a;fill-opacity:1;fill-rule:nonzero;stroke:none"
           d="m 3562.87,15732.5 c -982.99,-567.6 -1321.83,-1832 -754.29,-2815 567.53,-983 1831.98,-1321.8 2815.01,-754.3 982.98,567.6 1321.78,1832 754.24,2815 -567.52,983 -1831.97,1321.8 -2814.96,754.3 z m 256.94,-445.1 c 742.44,428.6 1684.28,176.3 2112.91,-566.2 428.68,-742.4 176.31,-1684.2 -566.12,-2112.9 -742.44,-428.6 -1684.27,-176.2 -2112.91,566.2 -428.68,742.4 -176.3,1684.3 566.12,2112.9 z" /></g><path
         id="path220"
         style="fill:#1a1a1a;fill-opacity:1;fill-rule:nonzero;stroke:none"
         d="m 5865.66,12341.5 c -208.9,-120.6 -283.08,-397.4 -162.46,-606.3 L 6993.83,9500.59 c 212.11,-367.39 690.23,-495.43 1057.58,-283.32 367.38,212.07 495.47,690.15 283.39,1057.53 l -0.03,0.1 -1289.89,2234.9 c -120.58,209 -397.38,283.1 -606.29,162.5 z m 358.05,-420.8 400.31,231.1 1240.08,-2148.7 c 66.29,-114.78 30.35,-248.92 -84.41,-315.17 -114.81,-66.25 -248.95,-30.31 -315.2,84.41 z" /><path
         id="path222"
         style="fill:#b3b3b3;fill-opacity:1;fill-rule:nonzero;stroke:none"
         d="m 5181.99,13652.9 462.81,267.2 1040.51,-1802.2 -462.81,-267.3 z" /><path
         id="path224"
         style="fill:#1a1a1a;fill-opacity:1;fill-rule:nonzero;stroke:none"
         d="m 5089.18,13677.7 33.98,-58.8 1074.5,-1861.1 580.47,335.2 -1108.48,1919.9 z m 185.62,-49.7 345.12,199.3 972.58,-1684.6 -345.12,-199.3 z" /><g
         transform="scale(1.03855)"
         id="g226"><path
           id="path228"
           style="fill:#b3b3b3;fill-opacity:1;fill-rule:nonzero;stroke:none"
           d="m 6267.54,15120.6 c 243.55,-421.9 309.56,-923.2 183.48,-1393.7 -126.08,-470.5 -433.86,-871.7 -855.72,-1115.2 -421.87,-243.6 -923.17,-309.5 -1393.67,-183.5 -470.53,126.1 -871.67,433.9 -1115.21,855.8 -507.17,878.4 -206.19,2001.7 672.24,2508.8 878.45,507.2 2001.72,206.2 2508.88,-672.2 z" /></g><g
         transform="scale(1.01631)"
         id="g230"><path
           id="path232"
           style="fill:#d3d3d3;fill-opacity:1;fill-rule:nonzero;stroke:none"
           d="m 3840.91,16138.4 c -431.09,-248.9 -745.65,-658.8 -874.49,-1139.6 -128.82,-480.8 -61.37,-993.1 187.5,-1424.2 234.15,-404 610.43,-706.1 1055.45,-847.5 l -0.05,3572.9 c -128.21,-40.5 -251.75,-94.7 -368.41,-161.6 z" /></g><g
         transform="scale(1.04328)"
         id="g234"><path
           id="path236"
           style="fill:#1a1a1a;fill-opacity:1;fill-rule:nonzero;stroke:none"
           d="M 3709.03,15777.5 C 2804.1,15255.1 2493.55,14096 3016.02,13191.1 c 522.46,-905 1681.52,-1215.5 2586.45,-693.1 904.93,522.5 1215.48,1681.5 693.01,2586.5 -522.46,904.9 -1681.48,1215.5 -2586.45,693 z m 65.15,-112.8 c 843.98,487.3 1921.25,198.6 2408.52,-645.3 487.28,-844 198.64,-1921.3 -645.34,-2408.6 -843.98,-487.3 -1921.29,-198.6 -2408.56,645.4 -487.27,844 -198.6,1921.2 645.38,2408.5 z" /></g><path
         id="path238"
         style="fill:#7ce5ef;fill-opacity:1;fill-rule:nonzero;stroke:none"
         d="m 5911.05,15358.1 c 336.02,-582 136.61,-1326.2 -445.39,-1662.2 -279.49,-161.3 -611.6,-205 -923.32,-121.5 -311.71,83.5 -577.5,287.4 -738.86,566.9 -161.37,279.5 -205.08,611.6 -121.57,923.3 83.52,311.8 287.47,577.6 566.96,738.9 581.99,336 1326.17,136.6 1662.18,-445.4 z" /><path
         id="path240"
         style="fill:#b4ffff;fill-opacity:1;fill-rule:nonzero;stroke:none"
         d="m 5361.37,15317.7 c 127.34,-220.6 161.87,-482.7 95.93,-728.8 -65.93,-246 -226.87,-455.8 -447.5,-583.1 -220.58,-127.4 -482.73,-161.9 -728.75,-96 -246.05,65.9 -455.82,226.9 -583.16,447.5 -265.23,459.3 -107.85,1046.7 351.52,1312 459.34,265.1 1046.72,107.8 1311.96,-351.6 z" /><path
         id="path242"
         style="fill:#1a1a1a;fill-opacity:1;fill-rule:nonzero;stroke:none"
         d="m 4214.92,15862.3 c -613.79,-354.4 -824.65,-1141.2 -470.27,-1755 354.37,-613.7 1141.21,-824.6 1755,-470.2 613.79,354.3 824.61,1141.2 470.23,1755 -354.33,613.8 -1141.17,824.6 -1754.96,470.2 z m 67.93,-117.6 c 550.2,317.6 1251.72,129.6 1569.38,-420.6 317.65,-550.2 129.68,-1251.7 -420.51,-1569.4 -550.2,-317.6 -1251.76,-129.6 -1569.42,420.6 -317.65,550.2 -129.64,1251.7 420.55,1569.4 z" /><path
         id="path244"
         style="fill:#ffffff;fill-opacity:1;fill-rule:nonzero;stroke:none"
         d="m 4817.07,15130.5 c 67.03,-116.1 85.2,-254.1 50.47,-383.6 -34.69,-129.4 -119.38,-239.8 -235.47,-306.9 -116.09,-66.9 -254.06,-85.1 -383.55,-50.4 -129.46,34.7 -239.85,119.3 -306.88,235.4 -139.57,241.8 -56.76,550.9 185,690.5 241.72,139.5 550.86,56.7 690.43,-185 z" /><path
         id="path246"
         style="fill:#767676;fill-opacity:1;fill-rule:nonzero;stroke:none"
         d="m 6001.52,12106.1 c -82.57,-47.6 -110.66,-152.5 -63,-235.1 L 7229.14,9636.45 c 139.18,-241.06 445.31,-323.05 686.41,-183.87 241.05,139.18 323.08,445.27 183.9,686.32 l -1289.88,2235 c -47.69,82.6 -152.54,110.7 -235.12,63 z" /><path
         id="path248"
         style="fill:#585858;fill-opacity:1;fill-rule:nonzero;stroke:none"
         d="m 6808.59,12375.6 1027.39,-1780.2 c 139.18,-241.1 57.15,-547.2 -183.91,-686.38 -241.09,-139.18 -547.23,-57.22 -686.41,183.88 l -1027.89,1779.7 c 0.32,-0.6 0.55,-1 0.86,-1.5 L 7229.22,9636.48 c 139.18,-241.05 445.35,-323.04 686.44,-183.86 241.06,139.18 323.09,445.31 183.91,686.38 l -1289.84,2235 c -0.35,0.6 -0.67,1.2 -0.98,1.7 z" /><path
         id="path250"
         style="fill:#1a1a1a;fill-opacity:1;fill-rule:nonzero;stroke:none"
         d="m 5967.58,12165 c -114.18,-65.9 -153.79,-213.7 -87.89,-327.9 L 7170.31,9602.5 c 157.42,-272.66 506.57,-366.13 779.18,-208.75 272.66,157.42 366.21,506.52 208.83,779.15 l -1289.92,2235 c -65.9,114.1 -213.75,153.8 -327.89,87.9 z m 67.93,-117.7 572.93,330.8 c 50.97,29.4 112.85,12.8 142.3,-38.1 l 1289.89,-2235 c 120.97,-209.53 50.46,-472.62 -159.07,-593.59 -209.49,-120.94 -472.61,-50.47 -593.59,159.02 L 5997.38,11905 c -29.45,51 -12.85,112.9 38.13,142.3 z" /><path
         id="path252"
         style="fill:#b3b3b3;fill-opacity:1;fill-rule:nonzero;stroke:none"
         d="m 6079.18,11627.5 870.98,502.9" /><path
         id="path254"
         style="fill:#1a1a1a;fill-opacity:1;fill-rule:nonzero;stroke:none"
         d="m 6045.23,11686.4 67.93,-117.7 870.98,502.9 -67.93,117.6 z" /></g></g></svg>