<?xml version="1.0" standalone="no"?>
<!DOCTYPE svg PUBLIC "-//W3C//DTD SVG 20010904//EN"
 "http://www.w3.org/TR/2001/REC-SVG-20010904/DTD/svg10.dtd">
<svg version="1.0" xmlns="http://www.w3.org/2000/svg"
 width="512.000000pt" height="512.000000pt" viewBox="0 0 512.000000 512.000000"
 preserveAspectRatio="xMidYMid meet">
<metadata>
Created by potrace 1.16, written by Peter Selinger 2001-2019
</metadata>
<g transform="translate(0.000000,512.000000) scale(0.102400,-0.102400)"
fill="#000000" stroke="none">
<path d="M3140 4568 c-36 -13 -89 -40 -118 -61 -47 -34 -58 -37 -118 -37 l-65
0 -17 39 -18 39 -84 -35 c-46 -19 -110 -39 -142 -43 -66 -10 -107 -35 -138
-85 -18 -29 -26 -73 -43 -220 l-21 -185 -90 0 c-71 0 -98 -4 -122 -19 -60 -37
-69 -124 -18 -172 23 -22 36 -24 128 -27 l103 -4 -91 -181 c-54 -108 -140
-257 -212 -367 -159 -242 -228 -383 -248 -506 -6 -36 -14 -45 -69 -81 -34 -23
-93 -69 -130 -103 -37 -35 -69 -61 -71 -59 -2 2 -25 42 -51 88 -40 69 -55 87
-85 98 -24 10 -45 29 -63 60 l-28 45 29 32 c47 54 70 98 93 181 47 174 -18
363 -164 473 -135 102 -334 120 -486 43 -122 -63 -226 -219 -238 -358 -12
-141 35 -272 133 -368 108 -106 286 -156 424 -119 10 2 25 -12 42 -40 21 -35
25 -52 21 -84 -5 -35 3 -53 71 -173 202 -352 221 -384 255 -406 103 -69 237
-8 249 115 3 41 -2 58 -37 126 -23 43 -38 82 -34 86 11 9 132 44 136 39 2 -2
11 -33 21 -69 23 -84 82 -210 137 -291 57 -85 188 -214 270 -267 l66 -42 6
-76 c13 -150 68 -308 117 -334 27 -14 57 -12 84 5 32 21 73 116 92 212 l16 78
180 -1 181 -1 20 -39 c29 -57 116 -138 164 -152 52 -16 151 -15 183 1 30 15
45 54 36 91 -4 15 -24 46 -45 69 -28 30 -42 57 -50 96 -6 30 -10 55 -9 56 2 1
32 21 68 45 82 55 204 176 259 257 45 67 121 218 121 240 0 9 18 0 46 -22 73
-55 135 -46 154 23 14 51 13 93 -6 203 -27 155 -87 294 -152 353 -12 10 -29
44 -38 75 -23 80 -92 209 -196 368 -135 205 -168 263 -250 430 l-73 151 103 4
c104 3 104 3 134 37 27 30 30 39 25 78 -3 27 -14 54 -27 68 l-22 23 32 17 c46
24 170 145 218 213 l40 58 -53 70 c-163 216 -358 304 -535 242z m183 -59 c20
-5 37 -13 37 -16 0 -4 -30 -57 -66 -120 -48 -82 -71 -113 -85 -113 -15 0 -19
7 -19 33 0 30 -25 92 -51 128 -18 24 23 86 59 92 52 8 87 7 125 -4z m126 -60
c33 -22 61 -44 61 -49 0 -4 -17 -38 -37 -74 l-38 -66 -92 0 c-51 0 -93 3 -93
6 0 5 51 98 106 191 10 18 22 33 25 33 4 0 34 -18 68 -41z m-395 -59 c40 -15
57 -53 67 -142 5 -46 11 -98 13 -115 l5 -33 -341 0 -340 0 5 33 c4 17 9 61 12
97 9 89 22 126 52 150 24 19 40 20 264 20 131 0 249 -4 263 -10z m238 -258
c74 -130 74 -129 -11 -139 -47 -5 -50 -4 -55 18 -6 29 -26 196 -26 222 0 41
29 9 92 -101z m178 47 l43 -72 -24 -19 c-34 -26 -109 -71 -113 -67 -10 12
-126 217 -126 222 0 4 40 7 89 7 l89 0 42 -71z m-526 -141 c3 -18 7 -48 9 -65
l4 -33 -257 0 -257 0 4 33 c2 17 6 47 9 65 l5 32 239 0 239 0 5 -32z m457
-138 c21 -12 25 -40 7 -58 -17 -17 -1199 -17 -1216 0 -17 17 -15 45 6 57 24
14 1176 15 1203 1z m-403 -192 c12 -29 40 -115 62 -191 40 -135 63 -200 99
-281 11 -23 33 -72 51 -111 249 -553 41 -1119 -470 -1276 -62 -19 -98 -23
-205 -23 -113 0 -141 3 -215 26 -98 31 -206 86 -266 133 -48 39 -93 120 -128
230 -41 130 -49 195 -43 333 9 212 50 315 251 622 66 103 159 263 208 359 48
96 99 187 114 202 l28 29 247 0 247 0 20 -52z m-1883 -263 c184 -47 305 -236
274 -426 -20 -122 -95 -227 -202 -281 -196 -98 -426 -18 -521 182 -28 59 -31
74 -31 160 0 88 3 100 34 163 35 69 104 142 165 175 78 40 187 51 281 27z
m2754 -1118 c5 -41 6 -90 2 -109 l-7 -33 -46 45 -47 45 14 80 c8 44 15 112 15
150 l2 70 29 -87 c15 -47 32 -120 38 -161z m-2066 141 l6 -87 -80 -26 c-44
-14 -83 -25 -87 -25 -4 0 -15 14 -24 30 l-17 30 42 43 c41 43 147 130 152 125
1 -2 5 -42 8 -90z m-338 0 c11 -18 56 -97 101 -176 76 -132 82 -145 72 -173
-14 -41 -48 -61 -98 -57 l-41 3 -100 172 c-54 95 -99 176 -99 180 0 7 128 82
140 83 3 0 14 -15 25 -32z m1087 -975 c-5 -53 -54 -196 -70 -201 -23 -7 -62
110 -87 259 l-6 37 83 -29 83 -29 -3 -37z m686 37 c10 -39 24 -64 53 -92 22
-21 37 -43 34 -48 -12 -19 -100 -11 -145 13 -42 22 -114 109 -108 129 4 10
128 57 143 54 5 -1 15 -26 23 -56z"/>
<path d="M2295 2916 c-37 -16 -83 -68 -91 -102 -3 -13 -4 -55 -2 -93 3 -55 9
-75 31 -104 73 -96 226 -62 258 58 15 55 5 152 -18 183 -46 62 -119 85 -178
58z"/>
<path d="M2802 2747 c3 -59 10 -94 24 -117 39 -68 140 -91 204 -47 52 35 70
79 70 169 l0 78 -151 0 -152 0 5 -83z"/>
<path d="M947 3336 c-67 -18 -126 -62 -162 -121 -25 -40 -31 -61 -33 -125 -5
-96 19 -152 90 -214 60 -53 117 -71 197 -63 65 5 104 23 156 69 108 94 113
281 11 381 -72 71 -169 98 -259 73z m173 -46 c79 -41 130 -122 130 -208 0
-207 -235 -318 -390 -184 -58 49 -84 104 -84 177 0 179 187 296 344 215z"/>
</g>
</svg>
