<?xml version="1.0" standalone="no"?>
<!DOCTYPE svg PUBLIC "-//W3C//DTD SVG 20010904//EN"
 "http://www.w3.org/TR/2001/REC-SVG-20010904/DTD/svg10.dtd">
<svg version="1.0" xmlns="http://www.w3.org/2000/svg"
 width="600.000000pt" height="600.000000pt" viewBox="0 0 600.000000 600.000000"
 preserveAspectRatio="xMidYMid meet">

<g transform="translate(0.000000,600.000000) scale(0.100000,-0.100000)"
fill="#000000" stroke="none">
<path d="M0 3000 l0 -3000 3000 0 3000 0 0 3000 0 3000 -3000 0 -3000 0 0
-3000z m2670 2733 c36 -35 290 -459 290 -485 0 -7 -18 -9 -52 -4 -203 25 -266
28 -413 22 -88 -3 -185 -11 -215 -16 -30 -5 -58 -6 -63 -1 -13 13 236 439 283
484 34 32 46 37 85 37 39 0 51 -5 85 -37z m-1320 -602 c135 -49 245 -94 245
-100 0 -6 -47 -41 -105 -79 -140 -91 -234 -169 -354 -291 -55 -56 -105 -100
-111 -97 -12 4 -96 467 -95 529 0 45 21 90 52 111 47 34 109 21 368 -73z
m2829 57 c34 -21 51 -63 51 -125 -1 -82 -82 -528 -96 -528 -7 0 -41 33 -77 73
-123 137 -300 284 -439 366 -27 15 -48 33 -48 40 0 11 86 45 390 153 128 45
174 50 219 21z m-1399 -113 c1064 -124 1788 -1130 1570 -2180 -18 -90 -72
-268 -89 -294 -7 -10 -27 -6 -101 24 -360 144 -782 98 -1113 -122 -90 -60
-232 -195 -299 -286 -29 -38 -77 -119 -108 -180 l-56 -110 -55 -17 c-173 -56
-319 -162 -432 -312 -27 -38 -53 -68 -58 -68 -13 0 -159 56 -230 88 -407 184
-751 545 -922 967 -95 232 -131 420 -131 685 0 262 37 457 130 684 309 758
1083 1216 1894 1121z m-2086 -1083 c3 -5 -10 -55 -29 -113 -55 -170 -95 -408
-95 -559 0 -27 -4 -52 -10 -55 -13 -8 -410 325 -433 363 -35 62 -15 141 47
178 26 16 487 191 508 193 4 1 9 -3 12 -7z m4013 -108 c131 -47 252 -95 270
-107 67 -45 81 -120 34 -186 -26 -36 -406 -356 -424 -356 -9 0 -14 36 -18 130
-4 72 -14 173 -23 225 -16 91 -65 291 -85 343 -8 21 -6 37 5 37 2 0 111 -39
241 -86z m-4002 -1336 c65 -169 177 -365 287 -506 27 -34 46 -67 43 -72 -9
-14 -499 -13 -550 1 -79 21 -120 91 -98 164 9 29 239 438 266 473 17 21 23 14
52 -60z m3773 30 c17 -22 112 -189 112 -199 0 -5 -5 -9 -11 -9 -15 0 -157 112
-158 125 -1 16 31 95 39 95 4 0 12 -6 18 -12z m-487 -41 c405 -106 715 -440
789 -852 19 -105 65 -142 121 -96 30 24 29 69 -4 199 -27 107 -33 101 85 78
174 -34 292 -98 419 -225 128 -129 196 -275 223 -476 l6 -41 -60 -11 c-115
-22 -214 -84 -282 -177 -33 -46 -36 -78 -8 -106 36 -36 72 -26 124 35 32 37
67 64 111 86 60 29 70 31 148 27 99 -5 151 -30 215 -104 56 -62 76 -126 70
-223 -8 -135 -88 -249 -213 -308 l-60 -28 -1485 0 -1485 0 -94 33 c-261 91
-448 290 -518 552 -24 90 -24 292 0 378 55 201 196 372 382 462 106 52 187 70
316 70 134 0 233 -24 346 -85 45 -25 90 -45 100 -45 25 0 63 40 63 68 0 33
-45 72 -133 115 -103 50 -205 77 -320 84 -114 7 -111 -2 -34 121 157 252 421
431 716 487 118 22 340 14 462 -18z m-2308 -1057 c78 -38 174 -81 212 -94 79
-26 76 -20 51 -131 -9 -38 -16 -105 -16 -148 0 -77 -1 -78 -36 -110 -64 -56
-105 -77 -156 -77 -38 0 -52 5 -76 30 -40 39 -44 54 -92 326 -39 226 -45 274
-35 274 3 0 69 -31 148 -70z"/>
</g>
</svg>
